<svg width="48" height="48" viewBox="0 0 48 48" fill="none" xmlns="http://www.w3.org/2000/svg">
<mask id="mask0_413_20583" style="mask-type:luminance" maskUnits="userSpaceOnUse" x="0" y="0" width="48" height="48">
<path d="M47.5 0H0V47.5H47.5V0Z" fill="white"/>
</mask>
<g mask="url(#mask0_413_20583)">
<path d="M20.7796 25.5444H0V29.7039H20.7796V25.5444Z" fill="white" fill-opacity="0.4"/>
<path d="M20.7796 10.0913H0V14.2508H20.7796V10.0913Z" fill="white" fill-opacity="0.4"/>
<path d="M20.7796 17.8315H0V21.991H20.7796V17.8315Z" fill="white" fill-opacity="0.4"/>
<path d="M20.7796 2.37842H0V6.53789H20.7796V2.37842Z" fill="white" fill-opacity="0.4"/>
<path d="M47.4998 2.37842H26.7202V6.53789H47.4998V2.37842Z" fill="white" fill-opacity="0.4"/>
<path d="M20.7796 40.9712H0V45.1307H20.7796V40.9712Z" fill="white" fill-opacity="0.4"/>
<path d="M47.4998 17.8315H26.7202V21.991H47.4998V17.8315Z" fill="white" fill-opacity="0.4"/>
<path d="M47.4998 10.0913H26.7202V14.2508H47.4998V10.0913Z" fill="white" fill-opacity="0.4"/>
<path d="M20.7796 33.2583H0V37.4178H20.7796V33.2583Z" fill="white" fill-opacity="0.4"/>
<path d="M47.4998 25.5444H26.7202V29.7039H47.4998V25.5444Z" fill="white" fill-opacity="0.4"/>
<path d="M47.4998 40.9712H26.7202V45.1307H47.4998V40.9712Z" fill="white" fill-opacity="0.4"/>
<path d="M47.4998 33.2583H26.7202V37.4178H47.4998V33.2583Z" fill="white" fill-opacity="0.4"/>
</g>
</svg>
