<svg width="179" height="164" viewBox="0 0 179 164" fill="none" xmlns="http://www.w3.org/2000/svg">
<g filter="url(#filter0_d_413_16534)">
<mask id="mask0_413_16534" style="mask-type:luminance" maskUnits="userSpaceOnUse" x="15" y="7" width="149" height="150">
<path d="M164 7.48926H15V156.489H164V7.48926Z" fill="white"/>
</mask>
<g mask="url(#mask0_413_16534)">
<path d="M80.1823 39.1934H15V52.2409H80.1823V39.1934Z" fill="white"/>
<path d="M163.916 87.5576H15V100.605H163.916V87.5576Z" fill="white"/>
<path d="M163.916 63.3643H15V76.4119H163.916V63.3643Z" fill="white"/>
<path d="M163.916 111.753H15V124.8H163.916V111.753Z" fill="white"/>
<path d="M164 15H98.8181V28.0476H164V15Z" fill="white"/>
<path d="M80.1823 135.946H15V148.994H80.1823V135.946Z" fill="white"/>
<path d="M164 135.946H98.8181V148.994H164V135.946Z" fill="white"/>
<path d="M164 39.1934H98.8181V52.2409H164V39.1934Z" fill="white"/>
<path d="M80.1823 15H15V28.0476H80.1823V15Z" fill="white"/>
</g>
</g>
<defs>
<filter id="filter0_d_413_16534" x="0" y="0" width="179" height="163.994" filterUnits="userSpaceOnUse" color-interpolation-filters="sRGB">
<feFlood flood-opacity="0" result="BackgroundImageFix"/>
<feColorMatrix in="SourceAlpha" type="matrix" values="0 0 0 0 0 0 0 0 0 0 0 0 0 0 0 0 0 0 127 0" result="hardAlpha"/>
<feOffset/>
<feGaussianBlur stdDeviation="7.5"/>
<feComposite in2="hardAlpha" operator="out"/>
<feColorMatrix type="matrix" values="0 0 0 0 1 0 0 0 0 1 0 0 0 0 1 0 0 0 0.4 0"/>
<feBlend mode="normal" in2="BackgroundImageFix" result="effect1_dropShadow_413_16534"/>
<feBlend mode="normal" in="SourceGraphic" in2="effect1_dropShadow_413_16534" result="shape"/>
</filter>
</defs>
</svg>
