<?xml version="1.0" encoding="UTF-8"?>
<svg id="Layer_1" xmlns="http://www.w3.org/2000/svg" version="1.1" viewBox="0 0 96 60">
  <!-- Generator: Adobe Illustrator 30.4.0, SVG Export Plug-In . SVG Version: 2.1.4 Build 226)  -->
  <defs>
    <style>
      .st0 {
        fill: #fff;
      }
    </style>
  </defs>
  <rect x=".02" y="15" width="95" height="45"/>
  <path class="st0" d="M60.61,29.04h-2.18v.37h2.18v-.37Z"/>
  <path class="st0" d="M60.61,30.16h-2.18v.35h2.18v-.35Z"/>
  <path class="st0" d="M61.67,34.71h-4.32v.4h4.32v-.4Z"/>
  <path class="st0" d="M71.25,31.46h-2.2v.78h2.2v-.78Z"/>
  <path class="st0" d="M61.67,33.67h-4.32v.37h4.32v-.37Z"/>
  <path class="st0" d="M61.67,32.62h-4.32v.36h4.32v-.36Z"/>
  <path class="st0" d="M47.8,30.71c-.15.36-.32.71-.51,1.06h2.83c-.19-.35-.38-.7-.52-1.06h-1.8Z"/>
  <path class="st0" d="M49.57,28.44h-1.68v.93h1.68v-.93Z"/>
  <path class="st0" d="M37.28,35.28h-4.59v.68h4.59v-.68Z"/>
  <path class="st0" d="M37.28,33.6h-4.59v.67h4.59v-.67Z"/>
  <path class="st0" d="M71.25,29.55h-2.2v.77h2.2v-.77Z"/>
  <path class="st0" d="M58.44,28.24h2.18v-.42h1.35v.42h1.48v-.59h-7.89v.59h1.54v-.42h1.33v.42Z"/>
  <path class="st0" d="M49.78,32.81h-2.18v.97h2.18v-.97Z"/>
  <path class="st0" d="M57.78,31.9h3.75c-.13-.12-.25-.25-.38-.39h-3.02c-.11.14-.23.26-.35.39h0Z"/>
  <path class="st0" d="M86.74,30.58c-.24.5-.48.98-.67,1.33h.99v-1.57h-1.26l.95.24h0Z"/>
  <path class="st0" d="M85.52,30.34h-.88v1.57h1.13l-.73-.21c.17-.37.36-.94.48-1.36Z"/>
  <path class="st0" d="M83.01,31.67l-.78.25h1.24v-1.57h-.95c.22.42.41.96.49,1.32h0Z"/>
  <path class="st0" d="M71.25,27.61h-2.2v.77h2.2v-.77Z"/>
  <path class="st0" d="M81.98,28.75c-.47.25-.96.49-1.47.68h7.4c-.57-.21-1.12-.47-1.65-.76v.32h-4.27v-.25Z"/>
  <path class="st0" d="M86.24,35.66h-4.25v.5h4.25v-.5Z"/>
  <path class="st0" d="M0,15v45h94.95V15H0ZM43.01,26.1c.61.34,1.51.87,1.93,1.23l-.89,1.14c-.42-.39-1.27-.96-1.91-1.34l.86-1.03h0ZM42.29,29.4c.65.31,1.56.8,2.02,1.17l-.85,1.18c-.43-.39-1.33-.93-1.98-1.29l.82-1.06ZM14.85,49.88c-5.18,0-9.85-5.45-9.85-12.36s4.66-12.35,9.85-12.35,9.84,5.45,9.84,12.35-4.66,12.36-9.84,12.36ZM34.43,48.48h-1.36v-3.06h-1.5v3.06h-1.36v-7.41h1.36v3.05h1.5v-3.05h1.36v7.41ZM40.19,48.48h-1.46l-1.13-2.85-.36.84v2.01h-1.36v-7.41h1.36v2.34l-.41,1.22h.23l1.71-3.56h1.48l-1.66,3.41,1.6,4ZM39.73,33.2c-.86-.8-2.57-1.93-4.05-2.76v1.77h-1.51v-1.77c-.77.81-1.73,1.52-2.75,2.05h7.38v4.98h-1.52v-.37h-4.59v.39h-1.45v-4.9c-.38.19-.74.35-1.13.47-.22-.35-.67-.95-.99-1.26,1.3-.36,2.62-1.02,3.6-1.79h-3.23v-1.32h4.66v-.87c-1.11.1-2.21.16-3.29.19-.04-.36-.21-.92-.35-1.26,2.66-.1,5.69-.4,7.52-.86l1.02,1.18c-1.01.26-2.18.45-3.39.6v1.02h4.68v1.32h-2.92c1.2.68,2.43,1.47,3.15,2.07l-.86,1.13h0ZM44.46,46.7c0,1.22-.72,1.96-1.85,1.96-1.2,0-1.88-.72-1.88-1.97v-2.31h1.36v2.31c0,.41.19.66.52.66s.49-.21.49-.65v-5.63h1.37v5.63h0ZM49.88,43.8h-1.41v-.02c0-1.14-.17-1.59-.66-1.59-.32,0-.51.17-.63.52-.14.4-.17,1.15-.17,2.07,0,.96.03,1.71.17,2.12.11.31.28.46.54.46.47,0,.65-.45.65-1.6h1.4c0,2.07-.58,2.91-2.02,2.91-.95,0-1.53-.45-1.83-1.33-.24-.66-.32-1.54-.32-2.55s.08-1.9.32-2.55c.3-.88.88-1.34,1.93-1.34,1.46,0,2.03.91,2.03,2.9h0s0,.01,0,.01ZM52.04,34.02c-.4-.28-.78-.67-1.13-1.11v1.91h-3.31v.75c0,.47.11.54.82.54h2.19c.56,0,.66-.17.73-1.27.28.2.8.4,1.14.47-.16,1.55-.54,1.99-1.77,1.99h-2.42c-1.5,0-1.94-.36-1.94-1.72v-2.43c-.35.41-.72.78-1.11,1.08-.16-.24-.44-.57-.68-.82-.46,1.23-1.01,2.58-1.53,3.72l-1.28-.86c.5-.92,1.18-2.42,1.72-3.81l.85.62c.78-.54,1.56-1.46,2.04-2.39h-1.85v-1.33h1.97v-.93h-1.51v-1.32h1.51v-1.24h1.4v1.24h1.68v-1.24h1.42v1.24h1.57v1.32h-1.57v.93h1.92v1.33h-1.89c.49.86,1.24,1.67,2.02,2.14-.33.27-.79.81-1.01,1.17h0ZM64.41,33.62c-.46-.15-.91-.35-1.35-.6v2.8h-1.03c1.01.29,2.01.6,2.69.81l-1.2.82c-.79-.32-2.14-.78-3.47-1.14l.57-.49h-2.25l.63.45c-1,.51-2.64.98-4,1.18-.19-.26-.58-.7-.83-.94.97-.12,2.12-.4,2.96-.68h-1.1v-2.65c-.46.25-.94.46-1.42.62-.19-.32-.56-.81-.85-1.06.97-.25,1.97-.68,2.75-1.22h-2.32v-1.01h2.93v-.35h-1.48v-.75h1.48v-.37h-1.63v-.41h-1.23v-2.08h4.64c-.07-.17-.15-.34-.22-.49l1.44-.37c.15.25.3.57.41.86h4.31v2.08h-1.22v.41h-1.64v.37h1.56v.75h-1.56v.35h2.93v1.01h-2.02c.7.44,1.57.78,2.42.98-.3.26-.69.78-.89,1.12h0ZM67.21,37.39l-1.17-.75c.69-.66,1.11-1.71,1.29-2.8l1.28.36c-.23,1.22-.58,2.44-1.4,3.19ZM69.46,36.99c-.01-.7-.18-1.77-.4-2.58l1.22-.2c.26.81.44,1.86.48,2.55l-1.29.22ZM71.81,36.68c-.08-.6-.35-1.57-.66-2.3l1.12-.29c.32.71.63,1.65.73,2.26l-1.19.32ZM77.22,32.83c-.16,2.6-.32,3.71-.67,4.12-.27.31-.53.42-.91.47-.34.05-.89.06-1.48.04-.02-.42-.18-.98-.4-1.37.49.05.94.06,1.14.05.19,0,.31-.01.41-.14.17-.21.31-.87.42-2.48h-8.09v-7.19h8.72v1.27h-3.66v.77h3.24v1.17h-3.24v.77h3.24v1.15h-3.24v.78h4.55s-.01.38-.02.58h0ZM73.09,34.16l1.05-.36c.36.54.76,1.25.91,1.73l-1.12.41c-.13-.47-.49-1.23-.84-1.78h0ZM87.72,37.43h-1.48v-.3h-4.25v.34h-1.42v-4.24h7.16v4.21h0ZM89.1,29.82c-.24-.06-.5-.15-.76-.22v3.21h-8.46v-3.14c-.26.09-.51.17-.76.23-.15-.27-.53-.87-.78-1.14,2.24-.54,4.41-1.57,5.51-3.01l1.28.46c-.06.07-.12.16-.18.24,1.12,1,3.12,1.86,5.05,2.24-.31.26-.72.78-.91,1.13Z"/>
  <path class="st0" d="M83.17,28.04h2.05c-.36-.26-.72-.54-1.02-.81-.32.27-.67.55-1.03.81Z"/>
  <path class="st0" d="M82.47,30.34h-1.37v1.57h.85c-.06-.38-.22-.89-.42-1.29l.94-.27h0Z"/>
  <path class="st0" d="M86.24,34.19h-4.25v.5h4.25v-.5Z"/>
  <path class="st0" d="M9.42,38.12s.01-.35.21-.51c0-.06-.04-.33-.03-.47,0-.12.02-.38.03-.43-.2-.14-.21-.48-.21-.48v-.73s-.06-2.54-.07-3.06c0-.36.26-.36.26-.7,0-.25-.17-.46-.47-.47-.28,0-.48.21-.48.49,0,.32.24.32.24.66,0,.5-.07,3.07-.07,3.07v.75s-.03.58-.41.62h-.7c-.12,0-.22.08-.22.2v.21c0,.13.1.2.22.2h.65c.42.01.46.62.46.62v.75s.07,2.57.07,3.07c0,.35-.24.34-.24.66,0,.28.19.49.48.49.29,0,.46-.22.47-.47,0-.34-.26-.34-.26-.71,0-.52.08-3.06.08-3.06v-.74s0,0,0,0Z"/>
  <path class="st0" d="M14.7,42.59c-.07,0-.16-.04-.16-.03-.11.75-.24,1.34-.48,1.95-.82,2.08-3,3.01-3,3.01l1.21,1.09c.23-.26.76-1.08,1.12-1.82.45-.93.91-2.05,1.18-3.01.12-.43.23-.88.29-1.19-.05,0-.1,0-.16,0h0Z"/>
  <path class="st0" d="M19.47,40.16c-.02-.13-.13-.26-.31-.27-.21-.01-.51.09-.63.16-.12.07-1.04.65-1.6.82-.49.15-.77.21-1.59.24-.87.03-2.01-.29-2.7-.82-.61-.46-.96-.84-1.25-1.4-.17-.34-.36-.71-.41-1.7.05-1,.23-1.37.41-1.71.29-.56.63-.94,1.25-1.4.69-.52,1.84-.85,2.7-.81.82.03,1.1.09,1.59.24.56.17,1.47.75,1.6.81.12.07.41.17.63.16.18-.01.3-.15.31-.27.03-.19-.1-.5-.68-1.05-.59-.55-1.4-.83-1.95-.97-.88-.23-1.52-.28-2.44-.14-.84.13-1.59.39-2.3.89-1.27.89-1.59,1.64-1.84,2.13,0,0-.46.92-.47,2.1v.02h0c0,1.18.47,2.1.47,2.1.26.49.57,1.24,1.84,2.13.71.5,1.45.76,2.3.89.92.14,1.55.09,2.44-.14.55-.14,1.37-.42,1.95-.97.59-.55.71-.86.68-1.05h0ZM17.5,32.91l.53.25-.15.33-.53-.25.15-.33ZM16.04,32.55l.58.09-.05.37-.58-.09.05-.36h0ZM15.1,32.49l.04.37-.59.07-.02-.38.57-.06ZM13.62,32.76l.13.35-.55.21-.13-.35.55-.21ZM12.24,33.41l.22.29-.47.37-.22-.29.47-.37h0ZM11.12,34.44l.3.2-.32.5-.3-.2.32-.5ZM11.12,39.92l-.32-.5.3-.2.32.5-.3.2ZM12.24,40.95l-.46-.37.22-.29.47.37-.22.29ZM13.62,41.6l-.55-.21.13-.34.55.21-.13.35ZM15.1,41.87l-.57-.06.02-.38.59.07-.04.37h0ZM16.03,41.81l-.05-.37.58-.09.05.37-.58.09ZM17.5,41.45l-.15-.34.53-.25.15.33-.53.25Z"/>
  <path class="st0" d="M14.72,27.81h.68s.11-.05.1-.16c-.01-.54.34-1.15.34-1.17,0-.28-.45-.36-.78-.36s-.79.08-.79.36c0,0,.31.68.34,1.17.01.17.11.16.11.16h0Z"/>
  <path class="st0" d="M15.49,28.01h-.83v.77h.83v-.77Z"/>
  <path class="st0" d="M7.89,37.73c-.08.63-.3,1.09-.57,1.09-.33,0-.6-.73-.6-1.63s.27-1.63.6-1.63c.26,0,.48.44.57,1.06v.07h.42v-.07c-.12-.92-.51-1.6-.97-1.6-.55,0-.99.97-.99,2.17s.44,2.17.99,2.17c.46,0,.85-.69.96-1.63v-.04s-.41,0-.41,0v.04h0Z"/>
  <path class="st0" d="M15.09,31.72c.12,0,.22,0,.33,0,.02-1.53.04-2.74.04-2.74h-.8s.04,1.17.08,2.76c.1,0,.19-.02.35-.02Z"/>
  <path class="st0" d="M18.98,39.41c-.32.02-.52.11-.75.23-.77.37-.72.41-1.42.66-.91.32-1.53.31-2.55.11-.65-.12-1.16-.45-1.52-.75-.63-.53-1.17-1.26-1.19-2.48.02-1.22.57-1.95,1.19-2.48.36-.31.87-.63,1.52-.75,1.02-.19,1.64-.21,2.55.11.7.25.65.29,1.42.66.23.11.43.21.75.22.25.01.78.13.99-.2.1-.16.08-.4-.11-.65-.2-.26-.39-.45-.4-.46.15.27.21.51.17.69-.06.26-.17.33-.47.33-.42,0-.75-.19-1.35-.51-.53-.29-.61-.32-1.03-.47-.88-.31-2.88-.51-4.33.78-.67.6-1.25,1.37-1.29,2.73.04,1.35.61,2.13,1.29,2.73,1.45,1.29,3.45,1.09,4.33.78.42-.14.49-.18,1.03-.47.6-.32.92-.51,1.35-.51.3,0,.41.08.47.33.04.18-.02.42-.17.69.01,0,.21-.2.4-.46.19-.26.21-.49.11-.65-.21-.33-.74-.22-.99-.2h0Z"/>
  <path class="st0" d="M20.82,35.5s-.07-2.57-.07-3.07c0-.34.24-.34.24-.66,0-.28-.19-.49-.48-.49-.29,0-.46.22-.46.47,0,.34.26.34.26.71,0,.52-.08,3.06-.08,3.06v.73s-.01.57-.38.63h-4.34v.62h4.34c.36.07.39.63.39.63v.73s.06,2.54.06,3.06c0,.36-.26.36-.26.71,0,.25.17.46.46.47.28,0,.48-.21.48-.49,0-.32-.24-.32-.24-.66,0-.5.07-3.07.07-3.07v-.75s.03-.61.46-.61h0s.65-.01.65-.01c.12,0,.22-.08.22-.2v-.21c0-.13-.1-.2-.22-.2h-.7c-.37-.05-.41-.62-.41-.62v-.75h0Z"/>
  <path class="st0" d="M21.76,36.62c.09-.62.3-1.06.57-1.06.33,0,.61.73.61,1.63s-.27,1.63-.61,1.63c-.26,0-.49-.46-.57-1.09v-.04h-.42v.04c.12.94.51,1.63.97,1.63.55,0,.99-.97.99-2.17s-.44-2.17-.99-2.17c-.46,0-.84.68-.96,1.6v.07s.41,0,.41,0v-.07h0Z"/>
  <path class="st0" d="M14.78,39.65c0,.26-.04.39-.05.61.03,0,.1.02.21.03.11,0,.11.01.2.01.03-.23.06-.39.08-.63.07-.89.11-1.61.13-2.22.02-.53.04-1.89.06-3.42-.11,0-.2,0-.35,0-.07,0-.2,0-.27.01.02,1.27.04,2.47.02,3.42-.01.67,0,1.46-.02,2.18h0Z"/>
  <path class="st0" d="M11.73,37.18c0,.13.02.23.03.32h2.86v-.62h-2.86c-.01.1-.04.2-.04.3Z"/>
</svg>