<?xml version="1.0" encoding="UTF-8"?>
<svg id="Layer_1" xmlns="http://www.w3.org/2000/svg" version="1.1" viewBox="0 0 36.3 37">
  <!-- Generator: Adobe Illustrator 30.4.0, SVG Export Plug-In . SVG Version: 2.1.4 Build 226)  -->
  <defs>
    <style>
      .st0 {
        fill: none;
        stroke: #000;
        stroke-width: .6px;
      }

      .st1 {
        fill: #fff;
      }
    </style>
  </defs>
  <path class="st1" d="M27.15,9.5c0,4.97-4.03,9-9,9s-9,4.03-9,9,3.89,8.86,8.74,9C8.07,36.36.15,28.35.15,18.5S8.07.64,17.89.5c.09,0,.18,0,.26,0s.18,0,.26,0c4.85.14,8.74,4.12,8.74,9Z"/>
  <path d="M18.15,11.75c1.24,0,2.25-1.01,2.25-2.25s-1.01-2.25-2.25-2.25-2.25,1.01-2.25,2.25,1.01,2.25,2.25,2.25Z"/>
  <path d="M36.15,18.5c0,9.85-7.91,17.86-17.74,18-.09,0-.18,0-.26,0s-.18,0-.26,0c-4.85-.14-8.74-4.11-8.74-9s4.03-9,9-9,9-4.03,9-9S23.26.64,18.41.5c9.82.14,17.74,8.14,17.74,18Z"/>
  <path class="st1" d="M18.15,29.75c1.24,0,2.25-1.01,2.25-2.25s-1.01-2.25-2.25-2.25-2.25,1.01-2.25,2.25,1.01,2.25,2.25,2.25Z"/>
  <circle class="st0" cx="18.13" cy="18.48" r="17.98"/>
</svg>