<svg width="216" height="37" viewBox="0 0 216 37" fill="none" xmlns="http://www.w3.org/2000/svg">
<path d="M27.3007 9.29983C27.3007 14.2711 23.272 18.2998 18.3008 18.2998C13.3295 18.2998 9.30077 22.3306 9.30077 27.2999C9.30077 32.2691 13.1889 36.1552 18.0362 36.2958C8.21763 36.1573 0.300781 28.1536 0.300781 18.2998C0.300781 8.44613 8.21763 0.442432 18.0362 0.303939C18.123 0.301872 18.2119 0.299805 18.3008 0.299805C18.3896 0.299805 18.4785 0.301872 18.5653 0.303939C23.4147 0.4445 27.3007 4.41947 27.3007 9.29983Z" fill="white"/>
<path d="M18.2999 11.5509C19.5431 11.5509 20.5509 10.5431 20.5509 9.29987C20.5509 8.05665 19.5431 7.04883 18.2999 7.04883C17.0566 7.04883 16.0488 8.05665 16.0488 9.29987C16.0488 10.5431 17.0566 11.5509 18.2999 11.5509Z" fill="black"/>
<path d="M36.3007 18.2996C36.3007 28.1533 28.386 36.157 18.5654 36.2955C18.4785 36.2976 18.3897 36.2997 18.3008 36.2997C18.2119 36.2997 18.123 36.2976 18.0362 36.2955C13.1889 36.155 9.30078 32.1821 9.30078 27.2996C9.30078 22.4172 13.3316 18.2996 18.3008 18.2996C23.27 18.2996 27.3008 14.2709 27.3008 9.2996C27.3008 4.3283 23.4147 0.444272 18.5654 0.303711C28.386 0.442205 36.3007 8.44797 36.3007 18.2996Z" fill="black"/>
<path d="M18.2999 29.5509C19.5431 29.5509 20.5509 28.5431 20.5509 27.2999C20.5509 26.0567 19.5431 25.0488 18.2999 25.0488C17.0566 25.0488 16.0488 26.0567 16.0488 27.2999C16.0488 28.5431 17.0566 29.5509 18.2999 29.5509Z" fill="white"/>
<ellipse cx="18.2842" cy="18.2833" rx="17.9834" ry="17.9835" stroke="black" stroke-width="0.6"/>
<path d="M47.7768 11.9838H52.3848C55.5708 11.9838 57.0468 13.3158 57.0468 15.2778C57.0468 16.7538 56.3088 17.7078 54.8148 18.2658V18.3018C56.5608 18.6798 57.3528 19.6338 57.3528 21.2898C57.3528 23.4318 55.6608 24.7998 52.7808 24.7998H47.7768V11.9838ZM50.4228 14.1438V17.2578H52.2948C53.8428 17.2578 54.5088 16.7718 54.5088 15.6738C54.5088 14.6118 53.8788 14.1438 52.4208 14.1438H50.4228ZM50.4228 19.3458V22.6218H52.3848C54.0228 22.6218 54.6708 22.0998 54.6708 21.0198C54.6708 19.8678 54.0048 19.3458 52.3128 19.3458H50.4228ZM64.4895 11.6958C68.2515 11.6958 70.5555 14.2338 70.5555 18.3918C70.5555 22.5498 68.2515 25.0878 64.4895 25.0878C60.7275 25.0878 58.4235 22.5498 58.4235 18.3918C58.4235 14.2338 60.7275 11.6958 64.4895 11.6958ZM64.4895 14.0358C62.4195 14.0358 61.1595 15.6918 61.1595 18.3918C61.1595 21.0918 62.4195 22.7478 64.4895 22.7478C66.5595 22.7478 67.8195 21.0918 67.8195 18.3918C67.8195 15.6918 66.5595 14.0358 64.4895 14.0358ZM78.1259 11.6958C81.8879 11.6958 84.1919 14.2338 84.1919 18.3918C84.1919 22.5498 81.8879 25.0878 78.1259 25.0878C74.3639 25.0878 72.0599 22.5498 72.0599 18.3918C72.0599 14.2338 74.3639 11.6958 78.1259 11.6958ZM78.1259 14.0358C76.0559 14.0358 74.7959 15.6918 74.7959 18.3918C74.7959 21.0918 76.0559 22.7478 78.1259 22.7478C80.1959 22.7478 81.4559 21.0918 81.4559 18.3918C81.4559 15.6918 80.1959 14.0358 78.1259 14.0358ZM91.2487 18.0678L96.5407 24.7998H93.1747L88.8367 18.7518H88.8007V24.7998H86.1547V11.9838H88.8007V17.6178H88.8367L93.0307 11.9838H96.1267L91.2487 18.0678ZM107.135 11.6958C110.897 11.6958 113.201 14.2338 113.201 18.3918C113.201 22.5498 110.897 25.0878 107.135 25.0878C103.373 25.0878 101.069 22.5498 101.069 18.3918C101.069 14.2338 103.373 11.6958 107.135 11.6958ZM107.135 14.0358C105.065 14.0358 103.805 15.6918 103.805 18.3918C103.805 21.0918 105.065 22.7478 107.135 22.7478C109.205 22.7478 110.465 21.0918 110.465 18.3918C110.465 15.6918 109.205 14.0358 107.135 14.0358ZM123.714 14.2518H117.81V17.7438H123.264V20.0118H117.81V24.7998H115.164V11.9838H123.714V14.2518ZM134.522 11.6958C137.69 11.6958 139.706 13.6398 139.832 16.4298H137.168C137.006 14.9358 136.016 14.0358 134.522 14.0358C132.578 14.0358 131.39 15.6918 131.39 18.3918C131.39 21.1098 132.56 22.7478 134.468 22.7478C135.98 22.7478 136.97 21.8658 137.168 20.2998H139.886C139.634 23.3418 137.6 25.0878 134.468 25.0878C130.868 25.0878 128.654 22.5498 128.654 18.3918C128.654 14.2518 130.886 11.6958 134.522 11.6958ZM152.453 24.7998H149.807V19.2738H144.551V24.7998H141.905V11.9838H144.551V17.0058H149.807V11.9838H152.453V24.7998ZM162.145 21.6678H157.231L156.223 24.7998H153.451L157.897 11.9838H161.461L165.907 24.7998H163.135L162.145 21.6678ZM161.425 19.3998L161.155 18.5538C160.633 16.8978 160.129 15.2058 159.697 13.5498H159.661C159.229 15.2058 158.743 16.8978 158.221 18.5538L157.951 19.3998H161.425ZM177.926 24.7998H174.164L171.68 19.5978C170.87 17.8878 170.06 16.0878 169.34 14.3058H169.304C169.394 16.1598 169.448 18.0138 169.448 19.8678V24.7998H166.91V11.9838H170.672L173.156 17.1858C173.966 18.8958 174.776 20.6958 175.496 22.4778H175.532C175.442 20.6238 175.388 18.7698 175.388 16.9158V11.9838H177.926V24.7998ZM185.979 11.6958C189.129 11.6958 191.055 13.3518 191.325 15.9798H188.481C188.247 14.7198 187.401 14.0358 185.979 14.0358C183.927 14.0358 182.631 15.6918 182.631 18.4458C182.631 21.2538 183.891 22.9638 185.925 22.9638C187.761 22.9638 188.769 21.9018 188.805 19.9218H185.763V17.7618H191.271V24.7998H189.039V23.4138H189.003C188.283 24.4218 186.969 25.0518 185.259 25.0518C181.983 25.0518 179.895 22.5498 179.895 18.4458C179.895 14.2518 182.235 11.6958 185.979 11.6958ZM202.775 14.2518H196.565V17.1498H202.361V19.3998H196.565V22.5318H202.937V24.7998H193.919V11.9838H202.775V14.2518ZM208.966 11.6958C212.17 11.6958 213.826 13.1538 213.826 15.9078H211.144C211.144 14.5758 210.37 13.8018 208.912 13.8018C207.742 13.8018 206.95 14.3778 206.95 15.2058C206.95 16.1958 207.724 16.5198 209.74 17.0238C212.152 17.6178 214.24 18.2478 214.24 21.0378C214.24 23.4678 212.224 25.0878 209.236 25.0878C206.05 25.0878 204.052 23.5038 204.052 20.5878H206.788C206.788 22.1358 207.634 22.9458 209.272 22.9458C210.622 22.9458 211.486 22.3158 211.486 21.3078C211.486 20.1738 210.658 19.9578 208.84 19.4898C206.428 18.8778 204.232 18.3018 204.232 15.4938C204.232 13.2438 206.158 11.6958 208.966 11.6958Z" fill="black"/>
</svg>
