<?xml version="1.0" encoding="UTF-8"?>
<svg id="Layer_1" xmlns="http://www.w3.org/2000/svg" version="1.1" viewBox="0 0 35.8 35.8">
  <!-- Generator: Adobe Illustrator 30.5.1, SVG Export Plug-In . SVG Version: 2.1.4 Build 3)  -->
  <defs>
    <style>
      .st0 {
        fill: #fff;
      }
    </style>
  </defs>
  <path class="st0" d="M26.7,9.1c0,4.9-3.9,8.8-8.8,8.8s-8.8,3.9-8.8,8.8,3.8,8.7,8.5,8.8C8,35.4.3,27.6.3,17.9S8,.4,17.6.3h.5c4.8,0,8.5,4,8.5,8.8h0Z"/>
  <path d="M17.9,11.4c1.2,0,2.2-1,2.2-2.2s-1-2.2-2.2-2.2-2.2,1-2.2,2.2,1,2.2,2.2,2.2Z"/>
  <path d="M35.5,17.9c0,9.7-7.7,17.5-17.3,17.6h-.5c-4.8,0-8.5-4-8.5-8.8s3.9-8.8,8.8-8.8,8.8-3.9,8.8-8.8S22.9.4,18.2.3c9.6,0,17.3,7.9,17.3,17.6Z"/>
  <path class="st0" d="M17.9,29c1.2,0,2.2-1,2.2-2.2s-1-2.2-2.2-2.2-2.2,1-2.2,2.2,1,2.2,2.2,2.2Z"/>
  <path d="M17.9,35.8C8,35.8,0,27.8,0,17.9S8,0,17.9,0s17.9,8,17.9,17.9-8,17.9-17.9,17.9ZM17.9.6C8.4.6.6,8.4.6,17.9s7.8,17.3,17.3,17.3,17.3-7.8,17.3-17.3S27.5.6,17.9.6Z"/>
</svg>