<?xml version="1.0" encoding="UTF-8"?>
<svg id="Layer_1" xmlns="http://www.w3.org/2000/svg" version="1.1" viewBox="0 0 36.3 37">
  <!-- Generator: Adobe Illustrator 30.1.0, SVG Export Plug-In . SVG Version: 2.1.1 Build 136)  -->
  <defs>
    <style>
      .st0 {
        fill: #fff;
      }
    </style>
  </defs>
  <path class="st0" d="M27.3,9.3c0,5-4,9-9,9s-9,4-9,9,3.9,8.9,8.7,9C8.2,36.2.3,28.2.3,18.3S8.2.4,18,.3c0,0,.2,0,.3,0s.2,0,.3,0c4.8.1,8.7,4.1,8.7,9Z"/>
  <path d="M18.3,11.6c1.2,0,2.3-1,2.3-2.3s-1-2.3-2.3-2.3-2.3,1-2.3,2.3,1,2.3,2.3,2.3Z"/>
  <path d="M36.3,18.3c0,9.9-7.9,17.9-17.7,18,0,0-.2,0-.3,0s-.2,0-.3,0c-4.8-.1-8.7-4.1-8.7-9s4-9,9-9,9-4,9-9S23.4.4,18.6.3c9.8.1,17.7,8.1,17.7,18Z"/>
  <path class="st0" d="M18.3,29.6c1.2,0,2.3-1,2.3-2.3s-1-2.3-2.3-2.3-2.3,1-2.3,2.3,1,2.3,2.3,2.3Z"/>
</svg>