<?xml version="1.0" encoding="UTF-8"?>
<svg id="Layer_1" xmlns="http://www.w3.org/2000/svg" version="1.1" viewBox="0 0 216 37">
  <!-- Generator: Adobe Illustrator 30.4.0, SVG Export Plug-In . SVG Version: 2.1.4 Build 226)  -->
  <defs>
    <style>
      .st0 {
        fill: #fff;
      }

      .st1 {
        fill: none;
        stroke: #fff;
        stroke-width: .6px;
      }
    </style>
  </defs>
  <path class="st0" d="M27.3,9.3c0,4.97-4.03,9-9,9s-9,4.03-9,9,3.89,8.86,8.74,9C8.22,36.16.3,28.15.3,18.3S8.22.44,18.04.3c.09,0,.18,0,.26,0s.18,0,.26,0c4.85.14,8.74,4.12,8.74,9Z"/>
  <path d="M18.3,11.55c1.24,0,2.25-1.01,2.25-2.25s-1.01-2.25-2.25-2.25-2.25,1.01-2.25,2.25,1.01,2.25,2.25,2.25Z"/>
  <path d="M36.3,18.3c0,9.85-7.91,17.86-17.74,18-.09,0-.18,0-.26,0s-.18,0-.26,0c-4.85-.14-8.74-4.11-8.74-9s4.03-9,9-9,9-4.03,9-9S23.41.44,18.57.3c9.82.14,17.74,8.14,17.74,18Z"/>
  <path class="st0" d="M18.3,29.55c1.24,0,2.25-1.01,2.25-2.25s-1.01-2.25-2.25-2.25-2.25,1.01-2.25,2.25,1.01,2.25,2.25,2.25Z"/>
  <circle class="st1" cx="18.28" cy="18.28" r="17.98"/>
  <path class="st0" d="M47.8,12h4.6c3.2,0,4.7,1.3,4.7,3.3s-.7,2.4-2.2,3h0c1.7.4,2.5,1.4,2.5,3s-1.7,3.5-4.6,3.5h-5s0-12.8,0-12.8ZM50.4,14.1v3.1h1.9c1.5,0,2.2-.5,2.2-1.6s-.6-1.5-2.1-1.5h-2ZM50.4,19.3v3.3h2c1.6,0,2.3-.5,2.3-1.6s-.7-1.7-2.4-1.7c0,0-1.9,0-1.9,0ZM64.5,11.7c3.8,0,6.1,2.5,6.1,6.7s-2.3,6.7-6.1,6.7-6.1-2.5-6.1-6.7,2.3-6.7,6.1-6.7ZM64.5,14c-2.1,0-3.3,1.7-3.3,4.4s1.3,4.4,3.3,4.4,3.3-1.7,3.3-4.4-1.3-4.4-3.3-4.4ZM78.1,11.7c3.8,0,6.1,2.5,6.1,6.7s-2.3,6.7-6.1,6.7-6.1-2.5-6.1-6.7,2.3-6.7,6.1-6.7ZM78.1,14c-2.1,0-3.3,1.7-3.3,4.4s1.3,4.4,3.3,4.4,3.3-1.7,3.3-4.4-1.3-4.4-3.3-4.4ZM91.2,18.1l5.3,6.7h-3.4l-4.3-6h0v6h-2.6v-12.8h2.6v5.6h0l4.2-5.6h3.1s-4.9,6.1-4.9,6.1ZM107.1,11.7c3.8,0,6.1,2.5,6.1,6.7s-2.3,6.7-6.1,6.7-6.1-2.5-6.1-6.7,2.3-6.7,6.1-6.7ZM107.1,14c-2.1,0-3.3,1.7-3.3,4.4s1.3,4.4,3.3,4.4,3.3-1.7,3.3-4.4-1.3-4.4-3.3-4.4ZM123.7,14.3h-5.9v3.5h5.5v2.3h-5.5v4.8h-2.6v-12.8h8.5v2.3-.1ZM134.5,11.7c3.2,0,5.2,1.9,5.3,4.7h-2.7c-.2-1.5-1.2-2.4-2.6-2.4s-3.1,1.7-3.1,4.4,1.2,4.4,3.1,4.4,2.5-.9,2.7-2.4h2.7c-.3,3-2.3,4.8-5.4,4.8s-5.8-2.5-5.8-6.7,2.2-6.7,5.9-6.7l-.1-.1ZM152.5,24.8h-2.6v-5.5h-5.3v5.5h-2.6v-12.8h2.6v5h5.3v-5h2.6v12.8ZM162.1,21.7h-4.9l-1,3.1h-2.8l4.4-12.8h3.6l4.4,12.8h-2.8l-1-3.1h.1ZM161.4,19.4l-.3-.8c-.5-1.7-1-3.3-1.5-5h0c-.4,1.7-.9,3.3-1.4,5l-.3.8h3.5ZM177.9,24.8h-3.8l-2.5-5.2c-.8-1.7-1.6-3.5-2.3-5.3h0c0,1.9.1,3.7.1,5.6v4.9h-2.5v-12.8h3.8l2.5,5.2c.8,1.7,1.6,3.5,2.3,5.3h0c0-1.9-.1-3.7-.1-5.6v-4.9h2.5v12.8ZM186,11.7c3.1,0,5.1,1.7,5.3,4.3h-2.8c-.2-1.3-1.1-1.9-2.5-1.9-2.1,0-3.3,1.7-3.3,4.4s1.3,4.5,3.3,4.5,2.8-1.1,2.9-3h-3v-2.2h5.5v7h-2.2v-1.4h0c-.7,1-2,1.6-3.7,1.6-3.3,0-5.4-2.5-5.4-6.6s2.3-6.8,6.1-6.8l-.2.1ZM202.8,14.3h-6.2v2.9h5.8v2.2h-5.8v3.1h6.4v2.3h-9v-12.8h8.9v2.3h-.1ZM209,11.7c3.2,0,4.9,1.5,4.9,4.2h-2.7c0-1.3-.8-2.1-2.2-2.1s-2,.6-2,1.4.8,1.3,2.8,1.8c2.4.6,4.5,1.2,4.5,4s-2,4-5,4-5.2-1.6-5.2-4.5h2.7c0,1.5.8,2.4,2.5,2.4s2.2-.6,2.2-1.6-.8-1.4-2.6-1.8c-2.4-.6-4.6-1.2-4.6-4s1.9-3.8,4.7-3.8h0Z"/>
</svg>