<svg width="67" height="60" viewBox="0 0 67 60" fill="none" xmlns="http://www.w3.org/2000/svg">
<rect y="15" width="66" height="45" fill="black"/>
<path d="M26.5906 33.1362H24.1445V34.0718H26.5906V33.1362Z" fill="white"/>
<path d="M12.6577 46.4185L11.8711 49.7606H13.6476L12.8478 46.4185H12.6577Z" fill="white"/>
<path d="M30.1562 39.192H33.4707L33.917 38.7491V37.8091H30.1562V39.192Z" fill="white"/>
<path d="M26.5906 35.8773V35.335H24.1445V36.3066H26.1906L26.5906 35.8773Z" fill="white"/>
<path d="M33.917 33.7355L33.8949 32.8452H30.1562V34.192H33.4707L33.917 33.7355Z" fill="white"/>
<path d="M37.7449 15.0068L18.8724 0L0 15.0068V60H66.1342V15.0068H37.7449ZM28.4799 28.5334H31.3723V27.0533H32.634V28.5334H35.4557V30.9174H34.1984V29.7718H29.7416V30.9174H28.4799V28.5334ZM35.153 36.5735V39.24L33.9885 40.4557H28.9196V31.6067H35.1729V34.2618L34.0349 35.4527H30.1769V36.5735H35.153ZM8.63081 52.4571H7.34481V46.0666H5.71189V44.9955H10.2615V46.0666H8.6286V52.4571H8.63081ZM14.272 52.4548L13.9052 50.8346H11.6602L11.2382 52.4548H10.0251L11.921 44.9864H13.671L15.4939 52.4548H14.272ZM18.8702 46.0666H18.2648V51.386H18.8702V52.4571H16.3734V51.386H16.9832V46.0666H16.3734V44.9955H18.8702V46.0666ZM18.8945 32.7297H13.0832V33.8054L18.1698 39.0298H18.8945V40.4851H17.4472V40.4602L17.4251 40.4851L12.4093 35.3307L7.34481 40.4851H5.89971V39.0298H6.57807L11.6867 33.828V32.7569H5.87982V31.2767H11.6624V27.0804H13.1097V31.2767H18.8945V32.732V32.7297ZM25.0042 27.5324H27.8745V30.9446H26.6128V28.7707H25.5168L23.2541 31.0395L22.4145 30.1808L25.002 27.5324H25.0042ZM22.9006 31.8936H24.7235V30.7299H25.9808V31.8936H27.8502V36.3814L26.7078 37.5723H24.1468V39.2196H26.1686L26.615 38.7745V38.2005H27.8502V39.2694L26.6857 40.4851H22.8984V31.8982L22.9006 31.8936ZM26.5001 52.4571L24.8893 49.1195L24.191 50.1702V52.4571H22.905V44.9932H24.191V48.1659H24.3744L26.3123 44.9932H27.6889L25.751 47.9738L27.9452 52.4571H26.5001ZM35.0381 52.4571H33.7764L32.7025 47.2801L32.6561 47.1851H32.4683L31.2795 52.4571H30.0178L28.4335 44.9932H29.6002L30.6277 49.9307L30.6498 50.0256H30.8376L31.9115 44.9932H33.1732L34.2691 50.0256H34.457L35.4844 44.9932H36.6489L35.0425 52.4571H35.0381ZM42.4293 50.2651H42.4072C42.4072 52.1723 41.077 52.552 39.9567 52.552C38.3459 52.552 37.5328 51.7679 37.5328 50.2651V44.9932H38.8144V50.2651C38.8144 51.0764 39.2099 51.4809 39.9788 51.4809C40.7478 51.4809 41.1455 51.0764 41.1455 50.2651V44.9932H42.4271V50.2651H42.4293ZM48.3091 52.4571H47.0474L44.7848 47.5467L44.7384 47.4721H44.5771V52.4345H43.4347V44.9661H44.8798L46.9325 49.4539L46.9789 49.5014H47.1668V44.9435H48.3091V52.4548V52.4571Z" fill="white"/>
</svg>
