<svg width="75" height="75" viewBox="0 0 75 75" fill="none" xmlns="http://www.w3.org/2000/svg">
<mask id="mask0_871_3475" style="mask-type:luminance" maskUnits="userSpaceOnUse" x="0" y="0" width="75" height="75">
<path d="M75.0001 0H0V75H75.0001V0Z" fill="white"/>
</mask>
<g mask="url(#mask0_871_3475)">
<path d="M32.824 40.3223H0V46.8898H32.824V40.3223Z" fill="black"/>
<path d="M32.824 15.9502H0V22.5179H32.824V15.9502Z" fill="black"/>
<path d="M75.0001 3.75684H0V10.3244H75.0001V3.75684Z" fill="black"/>
<path d="M32.824 28.1289H0V34.6965H32.824V28.1289Z" fill="black"/>
<path d="M75.0001 52.5H0V59.0677H75.0001V52.5Z" fill="black"/>
<path d="M74.999 40.3223H42.175V46.8898H74.999V40.3223Z" fill="black"/>
<path d="M75.0001 64.6943H0V71.2619H75.0001V64.6943Z" fill="black"/>
<path d="M74.999 15.9502H42.175V22.5179H74.999V15.9502Z" fill="black"/>
<path d="M74.999 28.1289H42.175V34.6965H74.999V28.1289Z" fill="black"/>
</g>
</svg>
