<svg width="75" height="75" viewBox="0 0 75 75" fill="none" xmlns="http://www.w3.org/2000/svg">
<mask id="mask0_871_2693" style="mask-type:luminance" maskUnits="userSpaceOnUse" x="0" y="0" width="75" height="75">
<path d="M75 0H0V74.9999H75V0Z" fill="white"/>
</mask>
<g mask="url(#mask0_871_2693)">
<path d="M32.824 40.3457H0V46.9133H32.824V40.3457Z" fill="black"/>
<path d="M32.824 15.9775H0V22.5451H32.824V15.9775Z" fill="black"/>
<path d="M32.824 28.1553H0V34.7229H32.824V28.1553Z" fill="black"/>
<path d="M75 3.74023H0V10.3078H75V3.74023Z" fill="black"/>
<path d="M32.824 52.5283H0V59.0959H32.824V52.5283Z" fill="black"/>
<path d="M74.999 15.9775H42.175V22.5451H74.999V15.9775Z" fill="black"/>
<path d="M74.999 64.7178H42.175V71.2853H74.999V64.7178Z" fill="black"/>
<path d="M32.824 64.7178H0V71.2853H32.824V64.7178Z" fill="black"/>
<path d="M74.999 40.3457H42.175V46.9133H74.999V40.3457Z" fill="black"/>
<path d="M74.999 28.1553H42.175V34.7229H74.999V28.1553Z" fill="black"/>
<path d="M74.999 52.5283H42.175V59.0959H74.999V52.5283Z" fill="black"/>
</g>
</svg>
