<svg width="75" height="75" viewBox="0 0 75 75" fill="none" xmlns="http://www.w3.org/2000/svg">
<mask id="mask0_871_3031" style="mask-type:luminance" maskUnits="userSpaceOnUse" x="0" y="0" width="75" height="75">
<path d="M75 0H0V75H75V0Z" fill="white"/>
</mask>
<g mask="url(#mask0_871_3031)">
<path d="M74.9988 40.3066H42.189V46.8742H74.9988V40.3066Z" fill="black"/>
<path d="M32.8099 40.3066H0V46.8742H32.8099V40.3066Z" fill="black"/>
<path d="M74.9579 3.76953H0V10.3372H74.9579V3.76953Z" fill="black"/>
<path d="M74.9579 52.4854H0V59.0529H74.9579V52.4854Z" fill="black"/>
<path d="M32.8099 15.9502H0V22.5178H32.8099V15.9502Z" fill="black"/>
<path d="M74.9988 64.667H42.189V71.2346H74.9988V64.667Z" fill="black"/>
<path d="M74.9579 28.1289H0V34.6966H74.9579V28.1289Z" fill="black"/>
<path d="M32.8099 64.667H0V71.2346H32.8099V64.667Z" fill="black"/>
<path d="M74.9988 15.9502H42.189V22.5178H74.9988V15.9502Z" fill="black"/>
</g>
</svg>
