<svg width="75" height="75" viewBox="0 0 75 75" fill="none" xmlns="http://www.w3.org/2000/svg">
<mask id="mask0_871_3158" style="mask-type:luminance" maskUnits="userSpaceOnUse" x="0" y="0" width="75" height="75">
<path d="M75 0H0V75H75V0Z" fill="white"/>
</mask>
<g mask="url(#mask0_871_3158)">
<path d="M74.9579 52.4834H0V59.051H74.9579V52.4834Z" fill="black"/>
<path d="M74.9579 40.3018H0V46.8694H74.9579V40.3018Z" fill="black"/>
<path d="M74.9579 28.124H0V34.6916H74.9579V28.124Z" fill="black"/>
<path d="M74.9579 3.7793H0V10.3469H74.9579V3.7793Z" fill="black"/>
<path d="M32.8098 64.6582H0V71.2259H32.8098V64.6582Z" fill="black"/>
<path d="M32.8098 15.958H0V22.5257H32.8098V15.958Z" fill="black"/>
<path d="M74.9988 64.6582H42.189V71.2259H74.9988V64.6582Z" fill="black"/>
<path d="M74.9988 15.958H42.189V22.5257H74.9988V15.958Z" fill="black"/>
</g>
</svg>
