<svg width="75" height="75" viewBox="0 0 75 75" fill="none" xmlns="http://www.w3.org/2000/svg">
<mask id="mask0_871_2729" style="mask-type:luminance" maskUnits="userSpaceOnUse" x="0" y="0" width="75" height="75">
<path d="M75 0H0V75H75V0Z" fill="white"/>
</mask>
<g mask="url(#mask0_871_2729)">
<path d="M32.8225 52.5283H-0.00146484V59.0959H32.8225V52.5283Z" fill="black"/>
<path d="M32.8225 28.1553H-0.00146484V34.7229H32.8225V28.1553Z" fill="black"/>
<path d="M74.9985 3.74023H-0.00146484V10.3078H74.9985V3.74023Z" fill="black"/>
<path d="M32.8225 40.3457H-0.00146484V46.9133H32.8225V40.3457Z" fill="black"/>
<path d="M74.9975 52.5283H42.1736V59.0959H74.9975V52.5283Z" fill="black"/>
<path d="M32.8225 64.7178H-0.00146484V71.2853H32.8225V64.7178Z" fill="black"/>
<path d="M74.9975 64.7178H42.1736V71.2853H74.9975V64.7178Z" fill="black"/>
<path d="M74.9985 15.9746H-0.00146484V22.5422H74.9985V15.9746Z" fill="black"/>
<path d="M74.9975 40.3457H42.1736V46.9133H74.9975V40.3457Z" fill="black"/>
<path d="M74.9975 28.1553H42.1736V34.7229H74.9975V28.1553Z" fill="black"/>
</g>
</svg>
