<svg width="75" height="75" viewBox="0 0 75 75" fill="none" xmlns="http://www.w3.org/2000/svg">
<mask id="mask0_871_3287" style="mask-type:luminance" maskUnits="userSpaceOnUse" x="0" y="0" width="75" height="75">
<path d="M75 0H0V75H75V0Z" fill="white"/>
</mask>
<g mask="url(#mask0_871_3287)">
<path d="M75.0007 40.3496H42.1909V46.9172H75.0007V40.3496Z" fill="black"/>
<path d="M32.8098 40.3496H0V46.9172H32.8098V40.3496Z" fill="black"/>
<path d="M75.0007 52.5156H42.1909V59.0832H75.0007V52.5156Z" fill="black"/>
<path d="M32.8098 52.5156H0V59.0832H32.8098V52.5156Z" fill="black"/>
<path d="M74.9579 3.75684H0V10.3244H74.9579V3.75684Z" fill="black"/>
<path d="M75.0007 15.9932H42.1909V22.5608H75.0007V15.9932Z" fill="black"/>
<path d="M74.9579 64.6943H0V71.2619H74.9579V64.6943Z" fill="black"/>
<path d="M32.8098 15.9902H0V22.5578H32.8098V15.9902Z" fill="black"/>
<path d="M74.9579 28.1719H0V34.7395H74.9579V28.1719Z" fill="black"/>
</g>
</svg>
