<svg width="75" height="75" viewBox="0 0 75 75" fill="none" xmlns="http://www.w3.org/2000/svg">
<mask id="mask0_871_3319" style="mask-type:luminance" maskUnits="userSpaceOnUse" x="0" y="0" width="75" height="75">
<path d="M75 0H0V74.9999H75V0Z" fill="white"/>
</mask>
<g mask="url(#mask0_871_3319)">
<path d="M32.824 40.3027H0V46.8703H32.824V40.3027Z" fill="black"/>
<path d="M32.824 52.4961H0V59.0637H32.824V52.4961Z" fill="black"/>
<path d="M74.9997 52.4961H42.1758V59.0637H74.9997V52.4961Z" fill="black"/>
<path d="M75 3.75293H0V10.3205H75V3.75293Z" fill="black"/>
<path d="M75 64.6748H0V71.2424H75V64.6748Z" fill="black"/>
<path d="M75 15.9473H0V22.5149H75V15.9473Z" fill="black"/>
<path d="M75 28.125H0V34.6926H75V28.125Z" fill="black"/>
<path d="M74.9997 40.3027H42.1758V46.8703H74.9997V40.3027Z" fill="black"/>
</g>
</svg>
