<svg width="75" height="75" viewBox="0 0 75 75" fill="none" xmlns="http://www.w3.org/2000/svg">
<mask id="mask0_871_3173" style="mask-type:luminance" maskUnits="userSpaceOnUse" x="0" y="0" width="75" height="75">
<path d="M75 0H0V75H75V0Z" fill="white"/>
</mask>
<g mask="url(#mask0_871_3173)">
<path d="M75 40.3066H0V46.8742H75V40.3066Z" fill="black"/>
<path d="M75 52.5H0V59.0676H75V52.5Z" fill="black"/>
<path d="M75 28.1289H0V34.6965H75V28.1289Z" fill="black"/>
<path d="M74.9997 3.75684H42.1758V10.3244H74.9997V3.75684Z" fill="black"/>
<path d="M74.9997 64.6777H42.1758V71.2453H74.9997V64.6777Z" fill="black"/>
<path d="M75 15.9502H0V22.5178H75V15.9502Z" fill="black"/>
<path d="M32.824 64.6777H0V71.2453H32.824V64.6777Z" fill="black"/>
<path d="M32.824 3.75684H0V10.3244H32.824V3.75684Z" fill="black"/>
</g>
</svg>
