<svg width="75" height="75" viewBox="0 0 75 75" fill="none" xmlns="http://www.w3.org/2000/svg">
<mask id="mask0_871_2814" style="mask-type:luminance" maskUnits="userSpaceOnUse" x="0" y="0" width="75" height="75">
<path d="M75 0H0V74.9999H75V0Z" fill="white"/>
</mask>
<g mask="url(#mask0_871_2814)">
<path d="M32.824 52.5117H0V59.0793H32.824V52.5117Z" fill="black"/>
<path d="M75 40.334H0V46.9016H75V40.334Z" fill="black"/>
<path d="M32.824 28.1553H0V34.7229H32.824V28.1553Z" fill="black"/>
<path d="M74.999 52.5117H42.175V59.0793H74.999V52.5117Z" fill="black"/>
<path d="M74.999 3.72852H42.175V10.2961H74.999V3.72852Z" fill="black"/>
<path d="M74.999 28.1553H42.175V34.7229H74.999V28.1553Z" fill="black"/>
<path d="M74.999 64.7061H42.175V71.2737H74.999V64.7061Z" fill="black"/>
<path d="M32.824 64.7061H0V71.2737H32.824V64.7061Z" fill="black"/>
<path d="M32.824 3.72852H0V10.2961H32.824V3.72852Z" fill="black"/>
<path d="M74.999 15.9629H42.175V22.5305H74.999V15.9629Z" fill="black"/>
<path d="M32.824 15.9629H0V22.5305H32.824V15.9629Z" fill="black"/>
</g>
</svg>
