<svg width="75" height="75" viewBox="0 0 75 75" fill="none" xmlns="http://www.w3.org/2000/svg">
<mask id="mask0_871_3303" style="mask-type:luminance" maskUnits="userSpaceOnUse" x="0" y="0" width="75" height="75">
<path d="M75 0H0V75H75V0Z" fill="white"/>
</mask>
<g mask="url(#mask0_871_3303)">
<path d="M32.824 40.3457H0V46.9133H32.824V40.3457Z" fill="black"/>
<path d="M74.9997 52.5283H42.1758V59.0959H74.9997V52.5283Z" fill="black"/>
<path d="M32.824 52.5283H0V59.0959H32.824V52.5283Z" fill="black"/>
<path d="M74.9997 3.74023H42.1758V10.3078H74.9997V3.74023Z" fill="black"/>
<path d="M74.9997 40.3457H42.1758V46.9133H74.9997V40.3457Z" fill="black"/>
<path d="M75 64.7178H0V71.2853H75V64.7178Z" fill="black"/>
<path d="M32.824 3.74023H0V10.3078H32.824V3.74023Z" fill="black"/>
<path d="M75 15.9746H0V22.5422H75V15.9746Z" fill="black"/>
<path d="M75 28.1553H0V34.7229H75V28.1553Z" fill="black"/>
</g>
</svg>
