<svg width="75" height="75" viewBox="0 0 75 75" fill="none" xmlns="http://www.w3.org/2000/svg">
<mask id="mask0_871_3254" style="mask-type:luminance" maskUnits="userSpaceOnUse" x="0" y="0" width="75" height="75">
<path d="M75.0001 0H0V75H75.0001V0Z" fill="white"/>
</mask>
<g mask="url(#mask0_871_3254)">
<path d="M74.958 64.6631H0V71.2307H74.958V64.6631Z" fill="black"/>
<path d="M32.8099 28.1406H0V34.7082H32.8099V28.1406Z" fill="black"/>
<path d="M32.8099 40.3223H0V46.8898H32.8099V40.3223Z" fill="black"/>
<path d="M74.958 3.78418H0V10.3518H74.958V3.78418Z" fill="black"/>
<path d="M32.8099 52.5H0V59.0677H32.8099V52.5Z" fill="black"/>
<path d="M74.9991 28.1406H42.1892V34.7082H74.9991V28.1406Z" fill="black"/>
<path d="M74.958 15.9629H0V22.5305H74.958V15.9629Z" fill="black"/>
<path d="M74.9991 52.5H42.1892V59.0677H74.9991V52.5Z" fill="black"/>
<path d="M74.9991 40.3223H42.1892V46.8898H74.9991V40.3223Z" fill="black"/>
</g>
</svg>
