<svg width="75" height="75" viewBox="0 0 75 75" fill="none" xmlns="http://www.w3.org/2000/svg">
<mask id="mask0_871_2781" style="mask-type:luminance" maskUnits="userSpaceOnUse" x="0" y="0" width="75" height="75">
<path d="M75 0H0V74.9999H75V0Z" fill="white"/>
</mask>
<g mask="url(#mask0_871_2781)">
<path d="M75.0008 52.5H42.1909V59.0677H75.0008V52.5Z" fill="black"/>
<path d="M32.8099 40.3223H0V46.8898H32.8099V40.3223Z" fill="black"/>
<path d="M75.0008 3.78418H42.1909V10.3517H75.0008V3.78418Z" fill="black"/>
<path d="M32.8099 52.5H0V59.0677H32.8099V52.5Z" fill="black"/>
<path d="M75.0008 40.3223H42.1909V46.8898H75.0008V40.3223Z" fill="black"/>
<path d="M75.0008 64.6631H42.1909V71.2306H75.0008V64.6631Z" fill="black"/>
<path d="M74.958 28.1406H0V34.7082H74.958V28.1406Z" fill="black"/>
<path d="M32.8099 64.6631H0V71.2306H32.8099V64.6631Z" fill="black"/>
<path d="M74.958 15.9629H0V22.5305H74.958V15.9629Z" fill="black"/>
<path d="M32.8099 3.78418H0V10.3517H32.8099V3.78418Z" fill="black"/>
</g>
</svg>
