<svg width="75" height="75" viewBox="0 0 75 75" fill="none" xmlns="http://www.w3.org/2000/svg">
<mask id="mask0_871_3613" style="mask-type:luminance" maskUnits="userSpaceOnUse" x="0" y="0" width="75" height="75">
<path d="M75 0H0V75H75V0Z" fill="white"/>
</mask>
<g mask="url(#mask0_871_3613)">
<path d="M32.8098 28.1562H0V34.7238H32.8098V28.1562Z" fill="black"/>
<path d="M74.9579 40.335H0V46.9026H74.9579V40.335Z" fill="black"/>
<path d="M75.0005 3.75684H42.1907V10.3244H75.0005V3.75684Z" fill="black"/>
<path d="M74.9579 52.5127H0V59.0803H74.9579V52.5127Z" fill="black"/>
<path d="M74.9579 64.6943H0V71.2619H74.9579V64.6943Z" fill="black"/>
<path d="M75.0005 28.1562H42.1907V34.7238H75.0005V28.1562Z" fill="black"/>
<path d="M32.8098 3.75684H0V10.3244H32.8098V3.75684Z" fill="black"/>
<path d="M74.9579 15.9346H0V22.5022H74.9579V15.9346Z" fill="black"/>
</g>
</svg>
