<svg width="75" height="75" viewBox="0 0 75 75" fill="none" xmlns="http://www.w3.org/2000/svg">
<mask id="mask0_871_3367" style="mask-type:luminance" maskUnits="userSpaceOnUse" x="0" y="0" width="75" height="75">
<path d="M75 0H0V75H75V0Z" fill="white"/>
</mask>
<g mask="url(#mask0_871_3367)">
<path d="M74.999 52.4961H42.175V59.0637H74.999V52.4961Z" fill="black"/>
<path d="M75 40.3027H0V46.8703H75V40.3027Z" fill="black"/>
<path d="M74.999 3.75293H42.175V10.3205H74.999V3.75293Z" fill="black"/>
<path d="M32.824 52.4961H0V59.0637H32.824V52.4961Z" fill="black"/>
<path d="M74.999 28.125H42.175V34.6927H74.999V28.125Z" fill="black"/>
<path d="M32.824 3.75293H0V10.3205H32.824V3.75293Z" fill="black"/>
<path d="M75 64.6748H0V71.2425H75V64.6748Z" fill="black"/>
<path d="M32.824 28.125H0V34.6927H32.824V28.125Z" fill="black"/>
<path d="M75 15.9307H0V22.4982H75V15.9307Z" fill="black"/>
</g>
</svg>
