<svg width="477" height="679" viewBox="0 0 477 679" fill="none" xmlns="http://www.w3.org/2000/svg">
<g clip-path="url(#clip0_1356_6192)">
<path d="M477 0H0V679H477V0Z" fill="white"/>
<mask id="mask0_1356_6192" style="mask-type:luminance" maskUnits="userSpaceOnUse" x="53" y="153" width="371" height="373">
<path d="M424 153.836H53V525.164H424V153.836Z" fill="white"/>
</mask>
<g mask="url(#mask0_1356_6192)">
<path d="M53.5249 323.625H60.4732V324.19H53.5249V323.625ZM56.6493 322.877H57.2614V330.19H56.6493V322.877ZM56.4585 327.429L56.9593 327.652C56.7738 327.901 56.5565 328.145 56.3074 328.384C56.0583 328.622 55.7907 328.848 55.5045 329.06C55.2236 329.267 54.9321 329.455 54.63 329.625C54.3279 329.795 54.0311 329.941 53.7396 330.063C53.7078 330.015 53.668 329.959 53.6203 329.896C53.5726 329.832 53.5223 329.768 53.4693 329.705C53.4216 329.646 53.3739 329.598 53.3262 329.561C53.6124 329.461 53.9039 329.336 54.2007 329.187C54.5028 329.034 54.7943 328.864 55.0752 328.678C55.3561 328.487 55.6158 328.286 55.8543 328.073C56.0928 327.861 56.2942 327.646 56.4585 327.429ZM57.4602 327.437C57.6351 327.66 57.8418 327.877 58.0803 328.089C58.3241 328.296 58.5891 328.495 58.8753 328.686C59.1615 328.872 59.4556 329.041 59.7577 329.195C60.0598 329.344 60.3566 329.466 60.6481 329.561C60.6057 329.604 60.558 329.654 60.505 329.713C60.452 329.776 60.4017 329.84 60.354 329.904C60.3063 329.967 60.2639 330.025 60.2268 330.079C59.9353 329.962 59.6358 329.816 59.3284 329.641C59.0263 329.471 58.7295 329.28 58.438 329.068C58.1518 328.856 57.8842 328.63 57.6351 328.392C57.386 328.153 57.166 327.909 56.9752 327.66L57.4602 327.437ZM54.7969 326.538V327.31H59.2171V326.538H54.7969ZM54.7969 325.336V326.092H59.2171V325.336H54.7969ZM54.2166 324.859H59.8293V327.787H54.2166V324.859Z" fill="black"/>
<path d="M65.9969 324.037V326.125H69.206V326.877H65.9969V329.124H69.5028V329.885H65.1436V323.275H69.4008V324.037H65.9969ZM72.3979 325.039C72.9856 325.039 73.44 325.194 73.7614 325.503C74.0893 325.806 74.2529 326.261 74.2529 326.868V328.678C74.2529 329.155 74.29 329.557 74.3642 329.885H73.6222C73.5792 329.687 73.5573 329.458 73.5573 329.198H73.5388C73.3718 329.452 73.1525 329.647 72.8802 329.783C72.6086 329.919 72.284 329.987 71.9064 329.987C71.4241 329.987 71.0378 329.86 70.747 329.607C70.4568 329.347 70.3111 329.012 70.3111 328.604C70.3111 328.195 70.4442 327.874 70.7099 327.638C70.9822 327.397 71.4459 327.224 72.1011 327.119C72.5589 327.044 73.0134 326.992 73.4646 326.961V326.775C73.4646 326.398 73.3692 326.119 73.177 325.94C72.9915 325.76 72.7318 325.67 72.3979 325.67C72.064 325.67 71.8043 325.757 71.6188 325.93C71.4333 326.097 71.3346 326.324 71.322 326.608H70.5058C70.531 326.144 70.7072 325.767 71.0345 325.476C71.3624 325.184 71.8169 325.039 72.3979 325.039ZM73.4646 327.583C72.9889 327.62 72.5775 327.67 72.231 327.731C71.8355 327.793 71.5539 327.886 71.387 328.01C71.2266 328.134 71.1458 328.313 71.1458 328.548C71.1458 328.796 71.2293 328.994 71.3962 329.142C71.5698 329.285 71.8076 329.356 72.1104 329.356C72.3025 329.356 72.4814 329.325 72.6484 329.263C72.8219 329.195 72.967 329.102 73.0843 328.985C73.2267 328.836 73.3254 328.684 73.3811 328.53C73.4367 328.369 73.4646 328.149 73.4646 327.871V327.583ZM77.1401 325.039C77.7211 325.039 78.1723 325.178 78.4943 325.457C78.8156 325.735 78.9766 326.131 78.9766 326.645H78.1789C78.1789 326.33 78.0862 326.088 77.9007 325.921C77.7211 325.754 77.4647 325.67 77.1308 325.67C76.846 325.67 76.6207 325.732 76.4538 325.856C76.2928 325.973 76.2126 326.135 76.2126 326.339C76.2126 326.5 76.2497 326.623 76.3239 326.71C76.4041 326.797 76.5154 326.865 76.6578 326.914C76.7996 326.964 77.0288 327.026 77.3442 327.1C77.7523 327.199 78.0676 327.292 78.2902 327.379C78.5188 327.465 78.7135 327.607 78.8745 327.806C79.0415 327.997 79.125 328.264 79.125 328.604C79.125 329.031 78.9547 329.374 78.6148 329.634C78.2809 329.888 77.8291 330.015 77.2607 330.015C76.6359 330.015 76.1503 329.87 75.8045 329.579C75.464 329.288 75.2911 328.867 75.2851 328.316H76.1106C76.1106 328.65 76.2093 328.91 76.4074 329.096C76.6114 329.276 76.899 329.365 77.27 329.365C77.5787 329.365 77.8265 329.3 78.012 329.17C78.1975 329.04 78.2902 328.87 78.2902 328.66C78.2902 328.48 78.2465 328.341 78.1604 328.242C78.0736 328.143 77.947 328.066 77.7801 328.01C77.6131 327.948 77.3501 327.874 76.9917 327.787C76.6141 327.694 76.3266 327.611 76.1291 327.536C75.931 327.456 75.7581 327.329 75.6097 327.156C75.4673 326.976 75.3964 326.725 75.3964 326.404C75.3964 326.001 75.5567 325.674 75.8787 325.42C76.206 325.166 76.6267 325.039 77.1401 325.039ZM81.8902 329.244C82.0201 329.244 82.1314 329.229 82.2241 329.198V329.866C82.0877 329.904 81.9147 329.922 81.7047 329.922C81.2529 329.922 80.9256 329.817 80.7216 329.607C80.5235 329.396 80.4248 329.05 80.4248 328.567V325.819H79.6086V325.169H80.4248V324.027H81.241V325.169H82.1778V325.819H81.241V328.483C81.241 328.756 81.29 328.951 81.3894 329.068C81.4881 329.185 81.655 329.244 81.8902 329.244Z" fill="black"/>
<path d="M53.5327 338.089H60.4333V338.685H53.5327V338.089ZM56.6571 336.139H57.2851V343.452H56.6571V336.139ZM56.5219 338.391L57.0387 338.574C56.8532 338.988 56.6359 339.391 56.3868 339.783C56.1377 340.176 55.8674 340.55 55.5759 340.905C55.2844 341.256 54.977 341.576 54.6537 341.868C54.3357 342.155 54.0071 342.399 53.6679 342.6C53.6361 342.547 53.591 342.492 53.5327 342.433C53.4797 342.37 53.4267 342.309 53.3737 342.25C53.3207 342.192 53.2704 342.141 53.2227 342.099C53.5513 341.919 53.8746 341.696 54.1926 341.431C54.5159 341.165 54.8206 340.868 55.1068 340.539C55.3983 340.205 55.6633 339.858 55.9018 339.497C56.1456 339.131 56.3523 338.762 56.5219 338.391ZM57.4044 338.407C57.5793 338.762 57.7886 339.12 58.0324 339.481C58.2762 339.837 58.5439 340.179 58.8354 340.508C59.1322 340.836 59.4396 341.134 59.7576 341.399C60.0756 341.664 60.3936 341.887 60.7116 342.067C60.6639 342.104 60.6109 342.155 60.5526 342.218C60.4943 342.277 60.4386 342.338 60.3856 342.401C60.3326 342.465 60.2902 342.526 60.2584 342.584C59.9351 342.377 59.6145 342.131 59.2965 341.844C58.9785 341.553 58.6711 341.232 58.3743 340.882C58.0828 340.526 57.8098 340.155 57.5554 339.768C57.3063 339.375 57.0864 338.982 56.8956 338.59L57.4044 338.407Z" fill="#888888"/>
<path d="M69.9019 343.147L69.2063 340.26C68.9526 339.214 68.724 338.227 68.5199 337.298H68.5014C68.2973 338.227 68.0688 339.214 67.815 340.26L67.1194 343.147H65.8951L64.3555 336.537H65.2088L65.8302 339.211C65.9724 339.836 66.1795 340.774 66.4516 342.023L66.5165 342.321H66.5351C66.8133 341.071 67.0578 340.031 67.2678 339.201L67.9171 336.537H69.1043L69.7535 339.201C69.9635 340.031 70.208 341.071 70.4862 342.321H70.5048C70.6963 341.386 70.9255 340.349 71.1911 339.211L71.8126 336.537H72.6659L71.1262 343.147H69.9019ZM75.0933 338.301C75.7862 338.301 76.3335 338.524 76.7349 338.969C77.1371 339.415 77.3378 340.022 77.3378 340.789C77.3378 341.556 77.1371 342.163 76.7349 342.608C76.3335 343.054 75.7862 343.277 75.0933 343.277C74.401 343.277 73.8537 343.054 73.4516 342.608C73.0561 342.163 72.858 341.556 72.858 340.789C72.858 340.022 73.0561 339.415 73.4516 338.969C73.8537 338.524 74.401 338.301 75.0933 338.301ZM75.0933 338.969C74.6666 338.969 74.3301 339.133 74.0823 339.461C73.8352 339.783 73.7113 340.226 73.7113 340.789C73.7113 341.352 73.8352 341.797 74.0823 342.126C74.3301 342.447 74.6666 342.608 75.0933 342.608C75.5265 342.608 75.8664 342.447 76.1135 342.126C76.3613 341.797 76.4845 341.352 76.4845 340.789C76.4845 340.226 76.3613 339.783 76.1135 339.461C75.8664 339.133 75.5265 338.969 75.0933 338.969ZM80.4284 338.301C81.1207 338.301 81.6679 338.524 82.0701 338.969C82.4722 339.415 82.6729 340.022 82.6729 340.789C82.6729 341.556 82.4722 342.163 82.0701 342.608C81.6679 343.054 81.1207 343.277 80.4284 343.277C79.7361 343.277 79.1888 343.054 78.7867 342.608C78.3912 342.163 78.1931 341.556 78.1931 340.789C78.1931 340.022 78.3912 339.415 78.7867 338.969C79.1888 338.524 79.7361 338.301 80.4284 338.301ZM80.4284 338.969C80.0017 338.969 79.6645 339.133 79.4174 339.461C79.1703 339.783 79.0464 340.226 79.0464 340.789C79.0464 341.352 79.1703 341.797 79.4174 342.126C79.6645 342.447 80.0017 342.608 80.4284 342.608C80.861 342.608 81.2015 342.447 81.4486 342.126C81.6957 341.797 81.8196 341.352 81.8196 340.789C81.8196 340.226 81.6957 339.783 81.4486 339.461C81.2015 339.133 80.861 338.969 80.4284 338.969ZM86.9692 343.147V342.46H86.9507C86.8208 342.707 86.6261 342.902 86.3664 343.045C86.1126 343.187 85.8251 343.258 85.5038 343.258C85.1083 343.258 84.7585 343.156 84.4557 342.952C84.1589 342.748 83.9304 342.46 83.7694 342.088C83.6084 341.711 83.5282 341.275 83.5282 340.78C83.5282 340.284 83.6084 339.851 83.7694 339.48C83.9304 339.103 84.1589 338.815 84.4557 338.617C84.7525 338.412 85.099 338.31 85.4945 338.31C85.8099 338.31 86.0941 338.381 86.3478 338.524C86.6075 338.66 86.8023 338.845 86.9321 339.081H86.9507V336.537H87.7669V343.147H86.9692ZM85.7078 338.969C85.3057 338.969 84.9844 339.133 84.7432 339.461C84.5021 339.79 84.3815 340.228 84.3815 340.78C84.3815 341.331 84.5021 341.773 84.7432 342.107C84.9844 342.435 85.3057 342.599 85.7078 342.599C86.0974 342.599 86.4094 342.435 86.6446 342.107C86.8798 341.779 86.9971 341.337 86.9971 340.78C86.9971 340.223 86.8798 339.783 86.6446 339.461C86.4094 339.133 86.0974 338.969 85.7078 338.969Z" fill="#888888"/>
<path d="M54.5897 352.942H59.0258V353.403H55.178V356.729H54.5897V352.942ZM58.827 352.942H59.4233V356.061C59.4233 356.226 59.3994 356.348 59.3517 356.427C59.304 356.512 59.2193 356.576 59.0974 356.618C58.9702 356.655 58.7953 356.676 58.5727 356.682C58.3554 356.692 58.0851 356.698 57.7618 356.698C57.7459 356.623 57.7167 356.541 57.6743 356.451C57.6372 356.361 57.6001 356.279 57.563 356.204C57.722 356.204 57.8757 356.207 58.0241 356.212C58.1778 356.218 58.3103 356.218 58.4216 356.212C58.5329 356.212 58.6097 356.212 58.6521 356.212C58.721 356.207 58.7661 356.194 58.7873 356.172C58.8138 356.151 58.827 356.111 58.827 356.053V352.942ZM54.9475 353.968H59.0258V354.398H54.9475V353.968ZM53.4688 351.963H60.4806V352.441H53.4688V351.963ZM53.9855 349.926H60.0513V350.396H53.9855V349.926ZM54.2558 350.929H59.7174V351.39H54.2558V350.929ZM54.9475 354.979H59.0338V355.409H54.9475V354.979ZM56.6567 349.393H57.2609V352.258H56.6567V349.393Z" fill="#888888"/>
<path d="M67.2954 349.799C68.0314 349.799 68.5846 349.951 68.9556 350.254C69.3325 350.551 69.5214 350.959 69.5214 351.479C69.5214 351.85 69.4286 352.169 69.2431 352.435C69.0576 352.695 68.7853 352.89 68.4269 353.02V353.039C68.8224 353.132 69.1285 353.314 69.3451 353.586C69.5618 353.852 69.6698 354.186 69.6698 354.589C69.6698 355.146 69.475 355.588 69.0854 355.916C68.6959 356.245 68.1579 356.408 67.4716 356.408H65.1436V349.799H67.2954ZM65.9969 352.686H67.2304C68.195 352.686 68.6773 352.324 68.6773 351.6C68.6773 351.241 68.5627 350.972 68.3342 350.792C68.1116 350.612 67.7558 350.523 67.2675 350.523H65.9969V352.686ZM65.9969 355.684H67.351C68.3096 355.684 68.7886 355.304 68.7886 354.543C68.7886 353.781 68.2692 353.401 67.2304 353.401H65.9969V355.684ZM70.8006 356.408V349.799H71.6168V356.408H70.8006ZM74.716 356.511C74.1721 356.511 73.7514 356.347 73.4546 356.019C73.1644 355.69 73.0187 355.208 73.0187 354.57V351.693H73.8349V354.505C73.8349 354.982 73.9276 355.326 74.1131 355.536C74.2986 355.74 74.5676 355.842 74.9201 355.842C75.2666 355.842 75.5574 355.716 75.7919 355.462C76.0271 355.202 76.1444 354.846 76.1444 354.394V351.693H76.9606V356.408H76.1722V355.787H76.1536C76.0052 356.009 75.8045 356.186 75.5508 356.316C75.3037 356.446 75.0254 356.511 74.716 356.511ZM80.283 355.907C80.6169 355.907 80.8918 355.824 81.1085 355.657C81.3311 355.489 81.4702 355.27 81.5259 354.997H82.3606C82.2738 355.437 82.0479 355.805 81.6835 356.102C81.3245 356.393 80.8581 356.538 80.283 356.538C79.8252 356.538 79.4297 356.433 79.0958 356.223C78.7619 356.013 78.5049 355.716 78.326 355.332C78.1524 354.948 78.0663 354.499 78.0663 353.986C78.0663 353.521 78.1524 353.107 78.326 352.742C78.5049 352.37 78.7586 352.083 79.0865 351.878C79.4204 351.668 79.81 351.563 80.2552 351.563C80.7805 351.563 81.2224 351.708 81.5815 351.999C81.9459 352.29 82.1903 352.692 82.3142 353.206C82.3758 353.46 82.407 353.797 82.407 354.218H78.8825C78.901 354.775 79.0368 355.196 79.2906 355.48C79.5503 355.765 79.8809 355.907 80.283 355.907ZM80.2552 352.194C79.8716 352.194 79.5596 352.318 79.3184 352.565C79.0773 352.807 78.9348 353.15 78.8918 353.596H81.6001C81.5563 353.144 81.4146 352.797 81.1734 352.556C80.9323 352.315 80.6262 352.194 80.2552 352.194ZM83.2444 354.06V353.336H85.4704V354.06H83.2444ZM88.3026 351.572C88.9207 351.572 89.391 351.841 89.7124 352.38H89.7309V351.693H90.5193V356.121C90.5193 356.808 90.3431 357.324 89.9906 357.671C89.6382 358.024 89.128 358.2 88.4602 358.2C87.8607 358.2 87.3876 358.067 87.0412 357.801C86.7013 357.535 86.5251 357.17 86.5125 356.706H87.3287C87.3413 356.978 87.446 357.188 87.644 357.337C87.8481 357.491 88.123 357.569 88.4695 357.569C88.8962 357.569 89.2115 357.452 89.4156 357.216C89.6196 356.981 89.7216 356.603 89.7216 356.084V355.573H89.7031C89.3632 356.099 88.8962 356.362 88.3026 356.362C87.9004 356.362 87.548 356.263 87.2452 356.065C86.9484 355.867 86.7165 355.588 86.5496 355.23C86.3886 354.864 86.3084 354.444 86.3084 353.967C86.3084 353.484 86.3886 353.063 86.5496 352.704C86.7165 352.339 86.9484 352.061 87.2452 351.869C87.548 351.671 87.9004 351.572 88.3026 351.572ZM88.4324 352.25C88.0488 352.25 87.7401 352.407 87.5049 352.723C87.2763 353.033 87.1617 353.447 87.1617 353.967C87.1617 354.481 87.2763 354.895 87.5049 355.211C87.7401 355.521 88.0488 355.675 88.4324 355.675C88.8405 355.675 89.1618 355.523 89.397 355.22C89.6322 354.911 89.7495 354.493 89.7495 353.967C89.7495 353.435 89.6322 353.017 89.397 352.714C89.1618 352.404 88.8405 352.25 88.4324 352.25ZM94.1577 351.646C94.2936 351.646 94.4082 351.659 94.5009 351.683V352.417C94.2969 352.398 94.1882 352.389 94.1763 352.389C93.7311 352.389 93.3879 352.528 93.1468 352.807C92.9056 353.085 92.785 353.484 92.785 354.004V356.408H91.9688V351.693H92.7479V352.417H92.7665C93.0752 351.903 93.539 351.646 94.1577 351.646ZM97.0303 355.907C97.3642 355.907 97.6392 355.824 97.8558 355.657C98.0784 355.489 98.2175 355.27 98.2732 354.997H99.1079C99.0212 355.437 98.7959 355.805 98.4309 356.102C98.0724 356.393 97.6054 356.538 97.0303 356.538C96.5726 356.538 96.177 356.433 95.8431 356.223C95.5092 356.013 95.2529 355.716 95.0733 355.332C94.9004 354.948 94.8136 354.499 94.8136 353.986C94.8136 353.521 94.9004 353.107 95.0733 352.742C95.2529 352.37 95.5059 352.083 95.8339 351.878C96.1678 351.668 96.5573 351.563 97.0025 351.563C97.5279 351.563 97.9704 351.708 98.3288 351.999C98.6939 352.29 98.9377 352.692 99.0616 353.206C99.1232 353.46 99.1543 353.797 99.1543 354.218H95.6298C95.6484 354.775 95.7842 355.196 96.0379 355.48C96.2976 355.765 96.6282 355.907 97.0303 355.907ZM97.0025 352.194C96.6189 352.194 96.3069 352.318 96.0657 352.565C95.8246 352.807 95.6821 353.15 95.6391 353.596H98.3474C98.3043 353.144 98.1619 352.797 97.9207 352.556C97.6796 352.315 97.3735 352.194 97.0025 352.194ZM102.22 355.907C102.554 355.907 102.829 355.824 103.046 355.657C103.268 355.489 103.408 355.27 103.463 354.997H104.298C104.211 355.437 103.986 355.805 103.621 356.102C103.262 356.393 102.795 356.538 102.22 356.538C101.763 356.538 101.367 356.433 101.033 356.223C100.699 356.013 100.443 355.716 100.263 355.332C100.09 354.948 100.004 354.499 100.004 353.986C100.004 353.521 100.09 353.107 100.263 352.742C100.443 352.37 100.696 352.083 101.024 351.878C101.358 351.668 101.747 351.563 102.193 351.563C102.718 351.563 103.16 351.708 103.519 351.999C103.884 352.29 104.128 352.692 104.252 353.206C104.313 353.46 104.344 353.797 104.344 354.218H100.82C100.838 354.775 100.974 355.196 101.228 355.48C101.488 355.765 101.818 355.907 102.22 355.907ZM102.193 352.194C101.809 352.194 101.497 352.318 101.256 352.565C101.015 352.807 100.872 353.15 100.829 353.596H103.537C103.494 353.144 103.352 352.797 103.111 352.556C102.87 352.315 102.564 352.194 102.193 352.194ZM107.681 351.591C108.226 351.591 108.646 351.754 108.943 352.083C109.24 352.411 109.388 352.893 109.388 353.531V356.408H108.572V353.596C108.572 353.119 108.479 352.779 108.294 352.575C108.108 352.364 107.839 352.259 107.487 352.259C107.134 352.259 106.841 352.386 106.605 352.639C106.377 352.893 106.262 353.249 106.262 353.707V356.408H105.446V351.693H106.234V352.315H106.253C106.401 352.092 106.599 351.915 106.847 351.785C107.094 351.655 107.373 351.591 107.681 351.591Z" fill="#888888"/>
<path d="M389.426 329.108H395.054V329.665H389.426V329.108ZM389.044 325.121H395.396V330.134H394.8V325.67H389.617V330.158H389.044V325.121ZM392.701 325.368H393.274V327.055C393.274 327.145 393.287 327.203 393.313 327.23C393.345 327.251 393.409 327.262 393.504 327.262C393.536 327.262 393.594 327.262 393.679 327.262C393.769 327.262 393.859 327.262 393.949 327.262C394.045 327.262 394.111 327.262 394.148 327.262C394.206 327.262 394.249 327.249 394.275 327.222C394.307 327.19 394.331 327.132 394.347 327.047C394.363 326.962 394.373 326.829 394.379 326.649C394.416 326.676 394.463 326.705 394.522 326.737C394.58 326.763 394.641 326.787 394.705 326.808C394.773 326.829 394.832 326.848 394.879 326.864C394.864 327.108 394.832 327.299 394.784 327.437C394.736 327.575 394.667 327.67 394.577 327.723C394.487 327.771 394.368 327.795 394.22 327.795C394.188 327.795 394.135 327.795 394.061 327.795C393.986 327.795 393.907 327.795 393.822 327.795C393.737 327.795 393.658 327.795 393.584 327.795C393.509 327.795 393.459 327.795 393.433 327.795C393.236 327.795 393.085 327.774 392.979 327.731C392.873 327.689 392.799 327.615 392.757 327.508C392.72 327.402 392.701 327.254 392.701 327.063V325.368ZM388.694 323.387H395.69V323.968H388.694V323.387ZM390.944 323.785H391.532V325.44H390.944V323.785ZM392.701 323.785H393.297V325.44H392.701V323.785ZM390.968 325.273H391.532V326.052C391.532 326.302 391.493 326.562 391.413 326.832C391.339 327.097 391.199 327.355 390.992 327.604C390.79 327.853 390.494 328.073 390.101 328.264C390.08 328.227 390.043 328.182 389.99 328.129C389.937 328.076 389.884 328.026 389.831 327.978C389.778 327.93 389.73 327.893 389.688 327.867C390.048 327.691 390.319 327.503 390.499 327.302C390.684 327.095 390.809 326.883 390.873 326.665C390.936 326.448 390.968 326.238 390.968 326.036V325.273Z" fill="black"/>
<path d="M405.127 329.885L404.431 326.998C404.177 325.952 403.949 324.965 403.745 324.037H403.726C403.522 324.965 403.293 325.952 403.04 326.998L402.344 329.885H401.12L399.58 323.275H400.433L401.055 325.949C401.197 326.574 401.404 327.512 401.676 328.762L401.741 329.059H401.76C402.038 327.809 402.282 326.769 402.492 325.94L403.142 323.275H404.329L404.978 325.94C405.188 326.769 405.433 327.809 405.711 329.059H405.729C405.921 328.125 406.15 327.087 406.416 325.949L407.037 323.275H407.89L406.351 329.885H405.127ZM410.299 329.384C410.633 329.384 410.909 329.3 411.125 329.133C411.347 328.966 411.487 328.747 411.542 328.474H412.377C412.291 328.914 412.065 329.282 411.7 329.579C411.341 329.87 410.874 330.015 410.299 330.015C409.842 330.015 409.446 329.91 409.112 329.699C408.778 329.489 408.522 329.192 408.342 328.808C408.169 328.424 408.083 327.976 408.083 327.462C408.083 326.998 408.169 326.584 408.342 326.218C408.522 325.847 408.776 325.559 409.103 325.355C409.437 325.145 409.826 325.039 410.272 325.039C410.798 325.039 411.239 325.184 411.598 325.476C411.963 325.767 412.207 326.168 412.331 326.682C412.393 326.936 412.423 327.273 412.423 327.694H408.899C408.917 328.251 409.054 328.672 409.307 328.957C409.567 329.241 409.898 329.384 410.299 329.384ZM410.272 325.67C409.889 325.67 409.576 325.794 409.335 326.042C409.094 326.283 408.952 326.627 408.908 327.072H411.616C411.573 326.621 411.431 326.274 411.19 326.032C410.949 325.791 410.643 325.67 410.272 325.67ZM415.073 325.039C415.654 325.039 416.105 325.178 416.427 325.457C416.749 325.735 416.91 326.131 416.91 326.645H416.112C416.112 326.33 416.019 326.088 415.834 325.921C415.654 325.754 415.398 325.67 415.064 325.67C414.779 325.67 414.554 325.732 414.387 325.856C414.226 325.973 414.146 326.135 414.146 326.339C414.146 326.5 414.183 326.623 414.257 326.71C414.337 326.797 414.449 326.865 414.591 326.914C414.733 326.964 414.962 327.026 415.277 327.1C415.685 327.199 416.001 327.292 416.223 327.379C416.452 327.465 416.647 327.607 416.808 327.806C416.975 327.997 417.058 328.264 417.058 328.604C417.058 329.031 416.888 329.374 416.548 329.634C416.214 329.888 415.762 330.015 415.194 330.015C414.569 330.015 414.084 329.87 413.738 329.579C413.397 329.288 413.224 328.867 413.218 328.316H414.044C414.044 328.65 414.142 328.91 414.341 329.096C414.545 329.276 414.832 329.365 415.203 329.365C415.512 329.365 415.76 329.3 415.945 329.17C416.131 329.04 416.223 328.87 416.223 328.66C416.223 328.48 416.18 328.341 416.094 328.242C416.007 328.143 415.88 328.066 415.713 328.01C415.546 327.948 415.283 327.874 414.925 327.787C414.547 327.694 414.26 327.611 414.062 327.536C413.864 327.456 413.691 327.329 413.543 327.156C413.4 326.976 413.33 326.725 413.33 326.404C413.33 326.001 413.49 325.674 413.812 325.42C414.139 325.166 414.56 325.039 415.073 325.039ZM419.823 329.244C419.953 329.244 420.065 329.229 420.157 329.198V329.866C420.021 329.904 419.848 329.922 419.638 329.922C419.186 329.922 418.859 329.817 418.655 329.607C418.457 329.396 418.358 329.05 418.358 328.567V325.819H417.542V325.169H418.358V324.027H419.174V325.169H420.111V325.819H419.174V328.483C419.174 328.756 419.223 328.951 419.323 329.068C419.421 329.185 419.588 329.244 419.823 329.244Z" fill="black"/>
<path d="M392.169 336.704C391.951 337.017 391.67 337.344 391.326 337.683C390.987 338.017 390.608 338.338 390.189 338.646C389.776 338.954 389.344 339.227 388.893 339.465C388.867 339.418 388.832 339.365 388.79 339.306C388.747 339.248 388.702 339.192 388.655 339.139C388.612 339.081 388.567 339.031 388.52 338.988C388.981 338.76 389.423 338.487 389.847 338.169C390.277 337.845 390.663 337.505 391.008 337.15C391.352 336.795 391.628 336.452 391.835 336.124H392.439C392.651 336.405 392.892 336.683 393.162 336.959C393.433 337.235 393.719 337.495 394.021 337.739C394.328 337.978 394.641 338.195 394.959 338.391C395.282 338.588 395.6 338.755 395.913 338.893C395.839 338.967 395.767 339.052 395.698 339.147C395.63 339.243 395.569 339.336 395.516 339.426C395.213 339.267 394.903 339.084 394.585 338.877C394.267 338.664 393.957 338.439 393.655 338.2C393.358 337.956 393.083 337.71 392.828 337.46C392.574 337.206 392.354 336.954 392.169 336.704ZM390.205 338.558H394.188V339.092H390.205V338.558ZM389.171 340.158H395.221V340.683H389.171V340.158ZM388.806 342.672H395.603V343.197H388.806V342.672ZM391.851 338.765H392.479V342.943H391.851V338.765ZM389.831 341.089L390.316 340.898C390.428 341.041 390.534 341.2 390.634 341.375C390.74 341.545 390.833 341.715 390.913 341.884C390.992 342.049 391.048 342.197 391.079 342.33L390.563 342.553C390.531 342.42 390.478 342.269 390.404 342.099C390.33 341.93 390.242 341.757 390.141 341.582C390.041 341.407 389.937 341.243 389.831 341.089ZM393.997 340.882L394.562 341.105C394.408 341.354 394.244 341.614 394.069 341.884C393.899 342.15 393.737 342.372 393.584 342.553L393.139 342.362C393.234 342.229 393.335 342.078 393.441 341.908C393.547 341.733 393.647 341.556 393.743 341.375C393.843 341.195 393.928 341.03 393.997 340.882Z" fill="#888888"/>
<path d="M406.435 343.147V339.786C406.435 339.229 406.441 338.388 406.454 337.261H406.435C406.212 337.905 405.953 338.635 405.656 339.452L405.535 339.786L404.311 343.147H403.328L402.104 339.786L401.983 339.452C401.686 338.635 401.426 337.905 401.204 337.261H401.185C401.198 338.388 401.204 339.229 401.204 339.786V343.147H400.369V336.537H401.742L402.938 339.795C403.235 340.631 403.526 341.476 403.81 342.33H403.829C404.113 341.476 404.404 340.631 404.701 339.795L405.888 336.537H407.27V343.147H406.435ZM410.744 342.645C411.078 342.645 411.353 342.562 411.569 342.395C411.792 342.228 411.931 342.008 411.987 341.736H412.821C412.735 342.175 412.509 342.543 412.144 342.84C411.786 343.132 411.319 343.277 410.744 343.277C410.287 343.277 409.891 343.171 409.557 342.961C409.223 342.751 408.966 342.454 408.787 342.07C408.614 341.686 408.527 341.238 408.527 340.724C408.527 340.26 408.614 339.845 408.787 339.48C408.966 339.109 409.22 338.821 409.547 338.617C409.881 338.406 410.271 338.301 410.716 338.301C411.242 338.301 411.684 338.446 412.042 338.737C412.407 339.028 412.652 339.43 412.775 339.944C412.837 340.198 412.868 340.535 412.868 340.956H409.343C409.362 341.513 409.498 341.934 409.751 342.218C410.011 342.503 410.342 342.645 410.744 342.645ZM410.716 338.932C410.333 338.932 410.02 339.056 409.779 339.304C409.538 339.545 409.396 339.888 409.353 340.334H412.061C412.018 339.882 411.875 339.536 411.634 339.294C411.393 339.053 411.087 338.932 410.716 338.932ZM415.576 342.506C415.706 342.506 415.817 342.491 415.91 342.46V343.128C415.774 343.165 415.601 343.184 415.391 343.184C414.939 343.184 414.612 343.078 414.408 342.868C414.209 342.658 414.111 342.311 414.111 341.829V339.081H413.295V338.431H414.111V337.289H414.927V338.431H415.864V339.081H414.927V341.745C414.927 342.017 414.976 342.212 415.075 342.33C415.174 342.447 415.341 342.506 415.576 342.506ZM418.565 338.301C419.153 338.301 419.607 338.455 419.929 338.765C420.257 339.068 420.42 339.523 420.42 340.13V341.94C420.42 342.417 420.457 342.819 420.532 343.147H419.79C419.747 342.948 419.725 342.72 419.725 342.46H419.706C419.539 342.714 419.32 342.909 419.048 343.045C418.775 343.181 418.451 343.249 418.074 343.249C417.591 343.249 417.205 343.122 416.914 342.868C416.624 342.608 416.478 342.274 416.478 341.866C416.478 341.457 416.612 341.136 416.877 340.9C417.15 340.659 417.613 340.486 418.269 340.38C418.726 340.306 419.181 340.254 419.632 340.223V340.037C419.632 339.66 419.536 339.381 419.344 339.201C419.159 339.022 418.899 338.932 418.565 338.932C418.231 338.932 417.972 339.019 417.786 339.192C417.601 339.359 417.502 339.585 417.489 339.87H416.673C416.698 339.406 416.874 339.028 417.202 338.737C417.53 338.446 417.984 338.301 418.565 338.301ZM419.632 340.845C419.156 340.882 418.745 340.931 418.398 340.993C418.003 341.055 417.721 341.148 417.554 341.272C417.393 341.396 417.313 341.575 417.313 341.81C417.313 342.057 417.397 342.256 417.564 342.404C417.737 342.547 417.975 342.618 418.278 342.618C418.469 342.618 418.649 342.586 418.816 342.525C418.989 342.456 419.134 342.364 419.252 342.246C419.394 342.098 419.493 341.946 419.549 341.791C419.604 341.63 419.632 341.411 419.632 341.132V340.845ZM421.814 343.147V336.537H422.63V343.147H421.814Z" fill="#888888"/>
<path d="M389.672 355.536H394.712V356.133H389.672V355.536ZM389.632 353.085H394.72V353.674H389.632V353.085ZM389.37 350.666H395.046V356.674H394.426V351.271H389.966V356.714H389.37V350.666ZM391.771 349.361L392.51 349.497C392.394 349.767 392.272 350.043 392.145 350.324C392.023 350.6 391.906 350.839 391.795 351.04L391.222 350.897C391.291 350.754 391.36 350.592 391.429 350.412C391.498 350.231 391.562 350.051 391.62 349.871C391.684 349.685 391.734 349.515 391.771 349.361Z" fill="#888888"/>
<path d="M405.127 356.408L404.431 353.521C404.177 352.476 403.949 351.488 403.745 350.56H403.726C403.522 351.488 403.293 352.476 403.04 353.521L402.344 356.408H401.12L399.58 349.799H400.433L401.055 352.472C401.197 353.098 401.404 354.035 401.676 355.285L401.741 355.582H401.76C402.038 354.332 402.282 353.293 402.492 352.463L403.142 349.799H404.329L404.978 352.463C405.188 353.293 405.433 354.332 405.711 355.582H405.729C405.921 354.648 406.15 353.611 406.416 352.472L407.037 349.799H407.89L406.351 356.408H405.127ZM409.541 352.287C409.696 352.058 409.897 351.884 410.144 351.767C410.392 351.65 410.658 351.591 410.942 351.591C411.487 351.591 411.907 351.754 412.203 352.083C412.5 352.411 412.649 352.893 412.649 353.531V356.408H411.832V353.596C411.832 353.119 411.74 352.779 411.554 352.575C411.369 352.364 411.1 352.259 410.747 352.259C410.395 352.259 410.101 352.386 409.866 352.639C409.637 352.893 409.523 353.249 409.523 353.707V356.408H408.707V349.799H409.523V352.287H409.541ZM414.051 356.408V351.693H414.867V356.408H414.051ZM414.051 350.718V349.799H414.867V350.718H414.051ZM417.976 355.768C418.106 355.768 418.217 355.753 418.31 355.722V356.39C418.173 356.427 418 356.446 417.79 356.446C417.338 356.446 417.011 356.34 416.807 356.13C416.609 355.92 416.51 355.573 416.51 355.09V352.342H415.694V351.693H416.51V350.551H417.326V351.693H418.263V352.342H417.326V355.007C417.326 355.279 417.375 355.474 417.475 355.592C417.574 355.709 417.741 355.768 417.976 355.768ZM421.015 355.907C421.349 355.907 421.624 355.824 421.84 355.657C422.063 355.489 422.202 355.27 422.257 354.997H423.092C423.006 355.437 422.78 355.805 422.415 356.102C422.057 356.393 421.59 356.538 421.015 356.538C420.557 356.538 420.161 356.433 419.827 356.223C419.494 356.013 419.237 355.716 419.058 355.332C418.885 354.948 418.798 354.499 418.798 353.986C418.798 353.521 418.885 353.107 419.058 352.742C419.237 352.37 419.491 352.083 419.818 351.878C420.152 351.668 420.542 351.563 420.987 351.563C421.513 351.563 421.955 351.708 422.313 351.999C422.678 352.29 422.923 352.692 423.046 353.206C423.108 353.46 423.139 353.797 423.139 354.218H419.614C419.633 354.775 419.769 355.196 420.022 355.48C420.282 355.765 420.613 355.907 421.015 355.907ZM420.987 352.194C420.604 352.194 420.291 352.318 420.05 352.565C419.809 352.807 419.667 353.15 419.623 353.596H422.332C422.289 353.144 422.146 352.797 421.905 352.556C421.664 352.315 421.358 352.194 420.987 352.194Z" fill="#888888"/>
<path d="M221.09 155.905H228.094V156.47H221.09V155.905ZM222.728 159.103H226.496V159.589H222.728V159.103ZM222.561 160.392H226.639V160.894H222.561V160.392ZM224.278 159.334H224.85V162.278H224.278V159.334ZM221.519 157.313H227.267V157.862H222.123V162.421H221.519V157.313ZM227.068 157.313H227.672V161.729C227.672 161.904 227.649 162.037 227.601 162.127C227.553 162.222 227.463 162.291 227.331 162.334C227.198 162.376 227.018 162.403 226.79 162.413C226.562 162.424 226.286 162.429 225.963 162.429C225.953 162.35 225.926 162.26 225.884 162.159C225.841 162.058 225.799 161.971 225.756 161.896C225.926 161.902 226.088 161.904 226.241 161.904C226.395 161.909 226.53 161.909 226.647 161.904C226.763 161.904 226.843 161.904 226.885 161.904C226.96 161.899 227.007 161.883 227.028 161.856C227.055 161.835 227.068 161.793 227.068 161.729V157.313ZM223.133 158.133L223.602 157.981C223.708 158.119 223.809 158.278 223.904 158.459C224 158.634 224.068 158.788 224.111 158.92L223.61 159.095C223.573 158.963 223.509 158.806 223.419 158.626C223.329 158.44 223.234 158.276 223.133 158.133ZM225.558 157.965L226.074 158.125C225.968 158.331 225.857 158.538 225.741 158.745C225.624 158.952 225.513 159.13 225.407 159.278L224.985 159.143C225.049 159.032 225.115 158.907 225.184 158.769C225.258 158.631 225.327 158.493 225.391 158.355C225.46 158.212 225.515 158.082 225.558 157.965ZM224.254 155.109H224.914V157.679H224.254V155.109Z" fill="black"/>
<path d="M234.546 155.385C235.331 155.385 235.922 155.567 236.317 155.932C236.713 156.298 236.911 156.839 236.911 157.557H236.048C236.048 157.074 235.919 156.716 235.659 156.48C235.405 156.239 235.031 156.118 234.537 156.118C234.128 156.118 233.807 156.211 233.572 156.397C233.343 156.582 233.229 156.833 233.229 157.149C233.229 157.377 233.284 157.563 233.396 157.706C233.507 157.841 233.671 157.956 233.887 158.049C234.11 158.136 234.422 158.229 234.824 158.328C235.331 158.452 235.736 158.578 236.039 158.708C236.348 158.838 236.596 159.03 236.781 159.284C236.973 159.538 237.069 159.878 237.069 160.305C237.069 160.695 236.97 161.038 236.772 161.335C236.58 161.626 236.305 161.852 235.946 162.013C235.594 162.174 235.18 162.254 234.703 162.254C233.924 162.254 233.318 162.056 232.886 161.66C232.453 161.264 232.236 160.689 232.236 159.934H233.117C233.117 160.466 233.257 160.865 233.535 161.131C233.813 161.391 234.206 161.521 234.713 161.521C235.182 161.521 235.544 161.419 235.798 161.215C236.058 161.01 236.187 160.723 236.187 160.351C236.187 160.116 236.129 159.928 236.011 159.785C235.9 159.642 235.733 159.531 235.51 159.451C235.294 159.364 234.982 159.268 234.574 159.163C234.067 159.039 233.661 158.912 233.359 158.782C233.056 158.646 232.811 158.454 232.626 158.207C232.446 157.96 232.357 157.625 232.357 157.204C232.357 156.852 232.446 156.539 232.626 156.267C232.805 155.988 233.059 155.771 233.386 155.617C233.72 155.462 234.107 155.385 234.546 155.385ZM240.142 157.279C240.835 157.279 241.382 157.501 241.784 157.947C242.186 158.393 242.387 158.999 242.387 159.766C242.387 160.534 242.186 161.14 241.784 161.586C241.382 162.032 240.835 162.254 240.142 162.254C239.45 162.254 238.902 162.032 238.5 161.586C238.105 161.14 237.907 160.534 237.907 159.766C237.907 158.999 238.105 158.393 238.5 157.947C238.902 157.501 239.45 157.279 240.142 157.279ZM240.142 157.947C239.715 157.947 239.379 158.111 239.131 158.439C238.884 158.761 238.76 159.203 238.76 159.766C238.76 160.329 238.884 160.775 239.131 161.103C239.379 161.425 239.715 161.586 240.142 161.586C240.575 161.586 240.915 161.425 241.162 161.103C241.41 160.775 241.533 160.329 241.533 159.766C241.533 159.203 241.41 158.761 241.162 158.439C240.915 158.111 240.575 157.947 240.142 157.947ZM245.145 162.226C244.601 162.226 244.181 162.063 243.884 161.734C243.594 161.406 243.448 160.924 243.448 160.286V157.409H244.264V160.221C244.264 160.698 244.357 161.042 244.542 161.252C244.728 161.456 244.997 161.558 245.349 161.558C245.696 161.558 245.987 161.431 246.221 161.177C246.456 160.918 246.574 160.561 246.574 160.11V157.409H247.39V162.124H246.601V161.502H246.583C246.434 161.725 246.234 161.902 245.98 162.032C245.733 162.162 245.455 162.226 245.145 162.226ZM250.499 161.484C250.629 161.484 250.74 161.469 250.833 161.437V162.106C250.696 162.143 250.523 162.162 250.313 162.162C249.861 162.162 249.534 162.056 249.33 161.846C249.132 161.636 249.033 161.289 249.033 160.806V158.058H248.217V157.409H249.033V156.267H249.85V157.409H250.786V158.058H249.85V160.723C249.85 160.995 249.899 161.19 249.998 161.307C250.097 161.425 250.264 161.484 250.499 161.484ZM252.644 158.003C252.798 157.774 253 157.6 253.247 157.483C253.494 157.365 253.76 157.306 254.045 157.306C254.588 157.306 255.009 157.47 255.306 157.798C255.603 158.127 255.751 158.609 255.751 159.247V162.124H254.935V159.312C254.935 158.835 254.842 158.495 254.657 158.29C254.471 158.08 254.202 157.975 253.85 157.975C253.497 157.975 253.204 158.101 252.969 158.355C252.74 158.609 252.625 158.965 252.625 159.423V162.124H251.809V155.515H252.625V158.003H252.644Z" fill="black"/>
<path d="M222.21 169.986L222.807 170.113C222.759 170.426 222.693 170.739 222.608 171.052C222.523 171.36 222.406 171.646 222.258 171.911C222.115 172.171 221.924 172.391 221.686 172.572L221.169 172.222C221.386 172.063 221.564 171.864 221.702 171.625C221.839 171.386 221.948 171.126 222.027 170.845C222.112 170.564 222.173 170.278 222.21 169.986ZM227.203 169.97L227.847 170.225C227.72 170.474 227.579 170.734 227.426 171.004C227.277 171.275 227.126 171.537 226.972 171.792C226.824 172.041 226.681 172.262 226.543 172.452L226.042 172.214C226.175 172.018 226.313 171.789 226.456 171.529C226.604 171.27 226.742 171.004 226.869 170.734C227.002 170.458 227.113 170.203 227.203 169.97ZM224.556 168.482H224.874V171.06C224.874 171.214 224.892 171.4 224.929 171.617C224.966 171.829 225.03 172.063 225.12 172.317C225.21 172.567 225.335 172.824 225.494 173.089C225.658 173.349 225.862 173.606 226.106 173.861C226.35 174.116 226.644 174.354 226.988 174.577C227.333 174.795 227.736 174.985 228.197 175.15C228.154 175.192 228.107 175.245 228.054 175.309C228.006 175.378 227.958 175.447 227.91 175.516C227.863 175.585 227.823 175.646 227.791 175.699C227.33 175.524 226.927 175.317 226.583 175.078C226.238 174.84 225.944 174.588 225.7 174.322C225.457 174.057 225.255 173.792 225.096 173.527C224.937 173.261 224.815 173.015 224.73 172.787C224.646 172.559 224.585 172.37 224.548 172.222C224.516 172.376 224.458 172.564 224.373 172.787C224.293 173.009 224.177 173.251 224.023 173.511C223.875 173.771 223.681 174.033 223.443 174.299C223.209 174.564 222.923 174.816 222.584 175.054C222.25 175.298 221.858 175.513 221.407 175.699C221.386 175.657 221.349 175.603 221.296 175.54C221.248 175.481 221.198 175.42 221.145 175.357C221.092 175.293 221.044 175.24 221.002 175.198C221.537 174.996 221.99 174.755 222.361 174.474C222.738 174.187 223.048 173.887 223.292 173.574C223.535 173.256 223.726 172.941 223.864 172.628C224.002 172.315 224.097 172.023 224.15 171.752C224.203 171.482 224.23 171.254 224.23 171.068V168.482H224.556Z" fill="#888888"/>
<path d="M233.609 169.538V171.793H236.688V172.555H233.609V175.386H232.756V168.776H236.893V169.538H233.609ZM237.915 175.386V170.67H238.731V175.386H237.915ZM237.915 169.695V168.776H238.731V169.695H237.915ZM242.368 170.624C242.505 170.624 242.619 170.636 242.711 170.661V171.394C242.507 171.376 242.399 171.366 242.387 171.366C241.941 171.366 241.598 171.506 241.357 171.784C241.116 172.063 240.995 172.462 240.995 172.982V175.386H240.179V170.67H240.958V171.394H240.977C241.286 170.88 241.75 170.624 242.368 170.624ZM245.241 174.885C245.575 174.885 245.85 174.801 246.067 174.634C246.289 174.467 246.429 174.247 246.484 173.975H247.319C247.232 174.415 247.007 174.783 246.642 175.08C246.283 175.371 245.816 175.516 245.241 175.516C244.784 175.516 244.388 175.411 244.054 175.2C243.72 174.99 243.464 174.693 243.284 174.309C243.111 173.925 243.025 173.477 243.025 172.963C243.025 172.499 243.111 172.085 243.284 171.719C243.464 171.348 243.717 171.06 244.045 170.856C244.379 170.646 244.768 170.54 245.214 170.54C245.739 170.54 246.181 170.685 246.54 170.976C246.905 171.268 247.149 171.669 247.273 172.183C247.334 172.437 247.365 172.774 247.365 173.195H243.841C243.859 173.752 243.995 174.173 244.249 174.458C244.509 174.742 244.839 174.885 245.241 174.885ZM245.214 171.171C244.83 171.171 244.518 171.295 244.277 171.543C244.036 171.784 243.893 172.128 243.85 172.573H246.558C246.515 172.122 246.373 171.775 246.132 171.533C245.891 171.292 245.585 171.171 245.214 171.171Z" fill="#888888"/>
<path d="M226.448 185.658L226.981 185.428C227.145 185.629 227.315 185.852 227.49 186.096C227.664 186.34 227.823 186.579 227.967 186.812C228.115 187.046 228.232 187.252 228.316 187.433L227.736 187.711C227.662 187.531 227.556 187.324 227.418 187.091C227.28 186.852 227.126 186.608 226.957 186.359C226.787 186.104 226.618 185.871 226.448 185.658ZM224.27 181.64H224.882V184.489H224.27V181.64ZM221.074 184.298H228.133V184.871H221.074V184.298ZM221.861 182.595H227.497V183.16H221.861V182.595ZM225.271 184.608H225.892V188.213C225.892 188.388 225.868 188.523 225.82 188.618C225.778 188.714 225.695 188.788 225.574 188.841C225.446 188.889 225.282 188.918 225.081 188.929C224.885 188.939 224.635 188.945 224.333 188.945C224.323 188.86 224.296 188.759 224.254 188.642C224.211 188.526 224.169 188.427 224.127 188.348C224.355 188.353 224.559 188.356 224.739 188.356C224.924 188.356 225.046 188.353 225.105 188.348C225.173 188.343 225.218 188.332 225.24 188.316C225.261 188.295 225.271 188.258 225.271 188.205V184.608ZM222.147 185.467L222.743 185.627C222.643 185.865 222.518 186.112 222.37 186.367C222.227 186.616 222.068 186.855 221.893 187.083C221.718 187.311 221.535 187.512 221.344 187.687C221.286 187.629 221.209 187.568 221.114 187.504C221.018 187.436 220.936 187.382 220.867 187.345C221.053 187.181 221.228 186.993 221.392 186.78C221.556 186.568 221.705 186.348 221.837 186.12C221.97 185.892 222.073 185.674 222.147 185.467ZM223.483 184.536H224.079V185.348C224.079 185.629 224.06 185.929 224.023 186.247C223.992 186.56 223.917 186.879 223.801 187.202C223.684 187.52 223.507 187.833 223.268 188.141C223.035 188.449 222.72 188.735 222.322 189C222.296 188.953 222.256 188.902 222.203 188.849C222.15 188.796 222.094 188.743 222.036 188.69C221.983 188.642 221.93 188.603 221.877 188.571C222.243 188.327 222.534 188.067 222.751 187.791C222.969 187.515 223.128 187.237 223.228 186.955C223.334 186.669 223.403 186.388 223.435 186.112C223.467 185.836 223.483 185.576 223.483 185.332V184.536Z" fill="#888888"/>
<path d="M234.852 182.038C235.631 182.038 236.212 182.193 236.596 182.502C236.979 182.812 237.171 183.254 237.171 183.83C237.171 184.251 237.056 184.61 236.828 184.907C236.599 185.204 236.293 185.395 235.909 185.482V185.501C236.151 185.575 236.339 185.699 236.475 185.872C236.611 186.045 236.753 186.336 236.902 186.745L237.579 188.648H236.651L236.048 186.902C235.913 186.507 235.752 186.234 235.566 186.086C235.387 185.937 235.121 185.863 234.769 185.863H233.609V188.648H232.756V182.038H234.852ZM233.609 185.139H234.843C235.338 185.139 235.702 185.027 235.937 184.804C236.178 184.576 236.299 184.272 236.299 183.895C236.299 183.146 235.795 182.771 234.787 182.771H233.609V185.139ZM240.314 188.146C240.648 188.146 240.923 188.063 241.139 187.896C241.362 187.729 241.501 187.509 241.557 187.237H242.391C242.305 187.676 242.079 188.044 241.714 188.341C241.356 188.632 240.889 188.778 240.314 188.778C239.857 188.778 239.46 188.672 239.126 188.462C238.793 188.252 238.536 187.955 238.357 187.571C238.184 187.187 238.097 186.739 238.097 186.225C238.097 185.761 238.184 185.346 238.357 184.981C238.536 184.61 238.79 184.322 239.117 184.118C239.451 183.907 239.841 183.802 240.286 183.802C240.812 183.802 241.254 183.947 241.612 184.238C241.977 184.529 242.222 184.931 242.345 185.445C242.407 185.699 242.438 186.036 242.438 186.457H238.913C238.932 187.014 239.068 187.435 239.321 187.719C239.581 188.004 239.912 188.146 240.314 188.146ZM240.286 184.433C239.903 184.433 239.59 184.557 239.349 184.804C239.108 185.046 238.966 185.389 238.922 185.835H241.631C241.588 185.383 241.445 185.037 241.204 184.795C240.963 184.554 240.657 184.433 240.286 184.433ZM246.728 188.648V187.961H246.709C246.58 188.208 246.385 188.403 246.125 188.546C245.872 188.688 245.585 188.759 245.263 188.759C244.867 188.759 244.518 188.657 244.214 188.453C243.918 188.249 243.689 187.961 243.528 187.589C243.368 187.212 243.287 186.776 243.287 186.28C243.287 185.785 243.368 185.352 243.528 184.981C243.689 184.604 243.918 184.316 244.214 184.118C244.511 183.913 244.858 183.811 245.253 183.811C245.569 183.811 245.853 183.882 246.107 184.025C246.366 184.161 246.561 184.346 246.691 184.582H246.709V182.038H247.526V188.648H246.728ZM245.467 184.47C245.065 184.47 244.743 184.634 244.502 184.962C244.261 185.291 244.14 185.729 244.14 186.28C244.14 186.832 244.261 187.274 244.502 187.608C244.743 187.936 245.065 188.1 245.467 188.1C245.856 188.1 246.169 187.936 246.403 187.608C246.639 187.28 246.756 186.837 246.756 186.28C246.756 185.724 246.639 185.284 246.403 184.962C246.169 184.634 245.856 184.47 245.467 184.47Z" fill="#888888"/>
<path d="M221.121 491.988H223.467V492.585H221.121V491.988ZM225.104 490.118H225.724V496.022C225.724 496.235 225.748 496.373 225.796 496.436C225.849 496.495 225.963 496.524 226.138 496.524C226.18 496.524 226.254 496.524 226.36 496.524C226.466 496.524 226.583 496.524 226.71 496.524C226.837 496.524 226.954 496.524 227.06 496.524C227.171 496.524 227.253 496.524 227.306 496.524C227.434 496.524 227.526 496.476 227.585 496.38C227.648 496.285 227.693 496.118 227.72 495.879C227.752 495.635 227.775 495.293 227.791 494.853C227.844 494.895 227.903 494.935 227.966 494.972C228.035 495.009 228.104 495.044 228.173 495.076C228.242 495.102 228.303 495.123 228.356 495.139C228.335 495.622 228.295 496.009 228.237 496.301C228.178 496.587 228.08 496.792 227.942 496.914C227.81 497.041 227.614 497.105 227.354 497.105C227.312 497.105 227.23 497.105 227.108 497.105C226.986 497.105 226.851 497.105 226.702 497.105C226.559 497.105 226.427 497.105 226.305 497.105C226.188 497.105 226.111 497.105 226.074 497.105C225.825 497.105 225.629 497.073 225.486 497.009C225.348 496.945 225.25 496.834 225.192 496.675C225.133 496.516 225.104 496.296 225.104 496.014V490.118ZM223.172 490.11H223.785V497.216H223.172V490.11ZM227.696 491.336L228.141 491.861C227.897 492.047 227.627 492.238 227.33 492.434C227.033 492.625 226.726 492.813 226.408 492.999C226.095 493.179 225.788 493.352 225.486 493.516C225.465 493.447 225.428 493.367 225.375 493.277C225.327 493.187 225.282 493.113 225.239 493.054C225.536 492.89 225.833 492.71 226.13 492.513C226.432 492.317 226.718 492.118 226.988 491.917C227.264 491.715 227.5 491.521 227.696 491.336ZM220.883 495.68C221.1 495.606 221.347 495.518 221.622 495.418C221.903 495.312 222.2 495.198 222.513 495.076C222.831 494.954 223.146 494.832 223.459 494.71L223.57 495.243C223.157 495.423 222.735 495.603 222.306 495.784C221.882 495.964 221.498 496.126 221.153 496.269L220.883 495.68Z" fill="black"/>
<path d="M236.744 496.983L235.177 494.133C234.583 493.069 234.051 492.081 233.581 491.171H233.563C233.581 492.23 233.591 493.285 233.591 494.337V496.983H232.756V490.373H234.008L235.585 493.223C236.209 494.362 236.741 495.349 237.18 496.184H237.199C237.18 495.126 237.171 494.071 237.171 493.019V490.373H238.006V496.983H236.744ZM241.492 492.137C242.185 492.137 242.732 492.36 243.133 492.805C243.535 493.251 243.736 493.858 243.736 494.625C243.736 495.392 243.535 495.999 243.133 496.444C242.732 496.89 242.185 497.113 241.492 497.113C240.799 497.113 240.252 496.89 239.85 496.444C239.454 495.999 239.256 495.392 239.256 494.625C239.256 493.858 239.454 493.251 239.85 492.805C240.252 492.36 240.799 492.137 241.492 492.137ZM241.492 492.805C241.065 492.805 240.728 492.969 240.481 493.297C240.233 493.619 240.11 494.062 240.11 494.625C240.11 495.188 240.233 495.633 240.481 495.962C240.728 496.283 241.065 496.444 241.492 496.444C241.925 496.444 242.265 496.283 242.512 495.962C242.76 495.633 242.883 495.188 242.883 494.625C242.883 494.062 242.76 493.619 242.512 493.297C242.265 492.969 241.925 492.805 241.492 492.805ZM247.033 492.22C247.169 492.22 247.283 492.233 247.376 492.258V492.991C247.172 492.972 247.064 492.963 247.051 492.963C246.606 492.963 246.263 493.102 246.022 493.381C245.781 493.659 245.66 494.059 245.66 494.578V496.983H244.844V492.267H245.623V492.991H245.641C245.951 492.477 246.415 492.22 247.033 492.22ZM249.974 496.342C250.103 496.342 250.215 496.327 250.307 496.296V496.964C250.171 497.001 249.998 497.02 249.788 497.02C249.336 497.02 249.009 496.914 248.805 496.704C248.607 496.494 248.508 496.147 248.508 495.665V492.917H247.692V492.267H248.508V491.125H249.324V492.267H250.261V492.917H249.324V495.581C249.324 495.853 249.373 496.048 249.473 496.166C249.571 496.283 249.738 496.342 249.974 496.342ZM252.119 492.861C252.273 492.632 252.475 492.458 252.722 492.341C252.969 492.224 253.235 492.165 253.519 492.165C254.063 492.165 254.484 492.329 254.781 492.657C255.077 492.985 255.226 493.468 255.226 494.105V496.983H254.41V494.17C254.41 493.693 254.317 493.353 254.131 493.149C253.946 492.939 253.677 492.833 253.325 492.833C252.972 492.833 252.679 492.96 252.443 493.214C252.215 493.468 252.1 493.823 252.1 494.281V496.983H251.284V490.373H252.1V492.861H252.119Z" fill="black"/>
<path d="M221.049 505.266H223.434V505.871H221.049V505.266ZM224.285 503.245H224.913V509.706C224.913 509.918 224.881 510.078 224.818 510.184C224.759 510.29 224.664 510.372 224.532 510.43C224.399 510.478 224.214 510.51 223.975 510.526C223.737 510.547 223.434 510.558 223.069 510.558C223.058 510.494 223.04 510.422 223.013 510.343C222.987 510.269 222.957 510.192 222.926 510.112C222.894 510.032 222.859 509.964 222.822 509.905C223.114 509.91 223.374 509.913 223.601 509.913C223.835 509.918 223.991 509.918 224.07 509.913C224.15 509.908 224.206 509.892 224.237 509.865C224.269 509.834 224.285 509.781 224.285 509.706V503.245ZM223.228 505.266H223.355L223.466 505.242L223.872 505.401C223.734 506.096 223.54 506.725 223.291 507.287C223.042 507.85 222.751 508.34 222.417 508.759C222.083 509.178 221.72 509.518 221.328 509.778C221.296 509.73 221.251 509.677 221.193 509.619C221.134 509.555 221.073 509.494 221.01 509.436C220.946 509.377 220.89 509.335 220.843 509.308C221.224 509.07 221.574 508.762 221.892 508.385C222.21 508.009 222.483 507.571 222.711 507.072C222.944 506.569 223.116 506.014 223.228 505.409V505.266ZM224.873 504.55C225.011 505.081 225.186 505.595 225.398 506.094C225.61 506.592 225.859 507.057 226.145 507.486C226.432 507.911 226.758 508.287 227.123 508.616C227.489 508.945 227.894 509.205 228.34 509.396C228.292 509.433 228.239 509.483 228.181 509.547C228.122 509.611 228.067 509.677 228.014 509.746C227.961 509.815 227.916 509.879 227.879 509.937C227.274 509.64 226.747 509.229 226.296 508.704C225.851 508.173 225.472 507.563 225.16 506.874C224.852 506.179 224.6 505.439 224.404 504.654L224.873 504.55ZM227.473 504.518L228.022 504.908C227.804 505.152 227.563 505.407 227.298 505.672C227.038 505.932 226.776 506.181 226.511 506.42C226.246 506.659 225.997 506.868 225.764 507.049L225.342 506.714C225.57 506.529 225.814 506.311 226.074 506.062C226.339 505.807 226.593 505.547 226.837 505.282C227.086 505.012 227.298 504.757 227.473 504.518Z" fill="#888888"/>
<path d="M237.514 510.244L236.819 507.357C236.565 506.312 236.336 505.324 236.132 504.396H236.114C235.91 505.324 235.681 506.312 235.427 507.357L234.732 510.244H233.507L231.968 503.635H232.821L233.442 506.308C233.585 506.934 233.792 507.871 234.064 509.121L234.129 509.418H234.147C234.426 508.168 234.67 507.129 234.88 506.299L235.529 503.635H236.717L237.366 506.299C237.576 507.129 237.82 508.168 238.099 509.418H238.117C238.309 508.484 238.538 507.447 238.803 506.308L239.425 503.635H240.278L238.739 510.244H237.514ZM242.438 505.399C243.026 505.399 243.48 505.553 243.801 505.863C244.129 506.166 244.293 506.621 244.293 507.227V509.038C244.293 509.514 244.33 509.916 244.404 510.244H243.662C243.619 510.046 243.597 509.817 243.597 509.557H243.579C243.412 509.811 243.193 510.006 242.92 510.142C242.649 510.278 242.324 510.347 241.946 510.347C241.464 510.347 241.078 510.22 240.787 509.966C240.497 509.706 240.351 509.372 240.351 508.963C240.351 508.555 240.484 508.233 240.75 507.998C241.022 507.757 241.486 507.583 242.141 507.478C242.599 507.404 243.053 507.351 243.505 507.32V507.135C243.505 506.757 243.409 506.479 243.217 506.299C243.032 506.119 242.772 506.03 242.438 506.03C242.104 506.03 241.844 506.117 241.659 506.29C241.473 506.457 241.375 506.683 241.362 506.967H240.546C240.571 506.503 240.747 506.126 241.074 505.835C241.402 505.544 241.857 505.399 242.438 505.399ZM243.505 507.942C243.029 507.979 242.617 508.029 242.271 508.091C241.875 508.152 241.594 508.245 241.427 508.369C241.267 508.493 241.186 508.672 241.186 508.908C241.186 509.155 241.269 509.353 241.436 509.502C241.61 509.644 241.848 509.715 242.15 509.715C242.343 509.715 242.521 509.684 242.688 509.622C242.862 509.554 243.007 509.461 243.124 509.344C243.267 509.195 243.365 509.044 243.421 508.889C243.477 508.728 243.505 508.508 243.505 508.23V507.942ZM247.256 509.604C247.386 509.604 247.497 509.589 247.59 509.557V510.226C247.454 510.263 247.281 510.282 247.071 510.282C246.62 510.282 246.292 510.176 246.088 509.966C245.89 509.756 245.791 509.409 245.791 508.926V506.178H244.975V505.529H245.791V504.387H246.607V505.529H247.544V506.178H246.607V508.843C246.607 509.115 246.657 509.31 246.755 509.427C246.854 509.545 247.021 509.604 247.256 509.604ZM250.296 509.743C250.63 509.743 250.905 509.66 251.121 509.492C251.344 509.325 251.483 509.106 251.539 508.833H252.373C252.287 509.273 252.061 509.641 251.696 509.938C251.337 510.229 250.871 510.374 250.296 510.374C249.838 510.374 249.443 510.269 249.109 510.059C248.775 509.849 248.518 509.551 248.339 509.168C248.165 508.784 248.079 508.335 248.079 507.822C248.079 507.357 248.165 506.943 248.339 506.578C248.518 506.206 248.771 505.918 249.099 505.714C249.433 505.504 249.823 505.399 250.268 505.399C250.793 505.399 251.235 505.544 251.594 505.835C251.959 506.126 252.203 506.528 252.327 507.042C252.389 507.296 252.42 507.633 252.42 508.054H248.895C248.914 508.611 249.05 509.032 249.303 509.316C249.563 509.601 249.894 509.743 250.296 509.743ZM250.268 506.03C249.884 506.03 249.572 506.154 249.331 506.401C249.09 506.643 248.948 506.986 248.905 507.432H251.613C251.569 506.98 251.427 506.633 251.186 506.392C250.945 506.151 250.639 506.03 250.268 506.03ZM255.71 505.482C255.846 505.482 255.961 505.495 256.054 505.519V506.253C255.85 506.234 255.742 506.225 255.729 506.225C255.284 506.225 254.941 506.364 254.699 506.643C254.458 506.921 254.338 507.32 254.338 507.84V510.244H253.522V505.529H254.301V506.253H254.319C254.629 505.739 255.092 505.482 255.71 505.482Z" fill="#888888"/>
<path d="M222.417 517.294V519.029H226.702V517.294H222.417ZM221.845 516.793H227.299V519.53H221.845V516.793ZM222.854 517.636L223.252 517.501C223.374 517.681 223.483 517.88 223.578 518.098C223.679 518.315 223.745 518.504 223.777 518.663L223.363 518.83C223.331 518.676 223.268 518.485 223.172 518.257C223.077 518.029 222.971 517.822 222.854 517.636ZM221.71 520.183H227.458V520.676H221.71V520.183ZM221.05 521.392H228.133V521.925H221.05V521.392ZM224.278 516.992H224.874V521.663H224.278V516.992ZM225.844 517.493L226.313 517.668C226.201 517.88 226.082 518.101 225.955 518.329C225.833 518.557 225.719 518.75 225.613 518.91L225.231 518.75C225.3 518.634 225.372 518.504 225.446 518.361C225.526 518.212 225.6 518.061 225.669 517.907C225.738 517.753 225.796 517.615 225.844 517.493ZM223.316 522.458L223.872 522.411C223.925 522.618 223.965 522.843 223.991 523.087C224.023 523.331 224.039 523.533 224.039 523.692L223.459 523.763C223.459 523.599 223.445 523.395 223.419 523.151C223.398 522.901 223.363 522.671 223.316 522.458ZM224.953 522.474L225.51 522.363C225.605 522.559 225.695 522.777 225.78 523.015C225.87 523.254 225.934 523.456 225.971 523.62L225.375 523.763C225.343 523.594 225.285 523.387 225.2 523.143C225.12 522.899 225.038 522.676 224.953 522.474ZM226.567 522.442L227.116 522.244C227.243 522.376 227.375 522.525 227.513 522.689C227.651 522.854 227.776 523.015 227.887 523.175C228.003 523.328 228.099 523.469 228.173 523.596L227.593 523.819C227.529 523.692 227.439 523.548 227.322 523.389C227.211 523.236 227.089 523.074 226.957 522.904C226.829 522.734 226.7 522.58 226.567 522.442ZM221.948 522.244L222.521 522.387C222.42 522.647 222.29 522.909 222.131 523.175C221.977 523.44 221.805 523.663 221.614 523.843L221.066 523.588C221.241 523.429 221.408 523.228 221.567 522.984C221.726 522.74 221.853 522.493 221.948 522.244Z" fill="#888888"/>
<path d="M234.908 516.896C235.644 516.896 236.197 517.048 236.568 517.351C236.945 517.648 237.134 518.057 237.134 518.577C237.134 518.948 237.041 519.267 236.855 519.533C236.67 519.793 236.398 519.988 236.039 520.118V520.136C236.435 520.229 236.741 520.412 236.957 520.684C237.174 520.95 237.282 521.284 237.282 521.687C237.282 522.244 237.087 522.686 236.698 523.014C236.308 523.342 235.77 523.506 235.084 523.506H232.756V516.896H234.908ZM233.609 519.784H234.843C235.807 519.784 236.29 519.422 236.29 518.697C236.29 518.339 236.175 518.07 235.946 517.89C235.724 517.71 235.368 517.621 234.88 517.621H233.609V519.784ZM233.609 522.782H234.963C235.922 522.782 236.401 522.401 236.401 521.64C236.401 520.879 235.882 520.498 234.843 520.498H233.609V522.782ZM238.413 523.506V516.896H239.229V523.506H238.413ZM242.356 518.66C242.944 518.66 243.398 518.815 243.72 519.124C244.048 519.428 244.211 519.882 244.211 520.489V522.299C244.211 522.776 244.248 523.178 244.322 523.506H243.58C243.537 523.308 243.516 523.079 243.516 522.819H243.497C243.33 523.073 243.111 523.268 242.838 523.404C242.567 523.54 242.242 523.608 241.865 523.608C241.382 523.608 240.996 523.482 240.705 523.228C240.415 522.968 240.269 522.634 240.269 522.225C240.269 521.817 240.402 521.495 240.668 521.26C240.94 521.018 241.404 520.845 242.059 520.74C242.517 520.665 242.972 520.613 243.423 520.582V520.396C243.423 520.019 243.327 519.74 243.135 519.561C242.95 519.381 242.69 519.292 242.356 519.292C242.022 519.292 241.763 519.378 241.577 519.551C241.392 519.719 241.293 519.945 241.28 520.229H240.464C240.489 519.765 240.665 519.388 240.993 519.097C241.321 518.806 241.775 518.66 242.356 518.66ZM243.423 521.204C242.947 521.241 242.536 521.291 242.189 521.352C241.794 521.414 241.512 521.507 241.345 521.631C241.185 521.755 241.104 521.934 241.104 522.169C241.104 522.417 241.187 522.615 241.354 522.763C241.528 522.906 241.766 522.977 242.069 522.977C242.261 522.977 242.44 522.946 242.607 522.884C242.78 522.816 242.925 522.723 243.043 522.606C243.185 522.457 243.284 522.305 243.339 522.151C243.395 521.99 243.423 521.77 243.423 521.492V521.204ZM247.479 518.66C247.85 518.66 248.18 518.738 248.471 518.892C248.768 519.041 249.002 519.251 249.176 519.524C249.355 519.796 249.46 520.108 249.491 520.461H248.638C248.607 520.127 248.483 519.855 248.267 519.644C248.056 519.434 247.791 519.329 247.469 519.329C247.055 519.329 246.727 519.492 246.486 519.821C246.245 520.142 246.124 520.585 246.124 521.148C246.124 521.711 246.242 522.157 246.477 522.485C246.718 522.807 247.049 522.968 247.469 522.968C247.791 522.968 248.056 522.856 248.267 522.634C248.483 522.405 248.607 522.117 248.638 521.77H249.491C249.46 522.129 249.358 522.451 249.185 522.736C249.012 523.014 248.777 523.234 248.48 523.395C248.189 523.556 247.856 523.636 247.479 523.636C247.027 523.636 246.635 523.537 246.301 523.339C245.967 523.135 245.71 522.847 245.531 522.476C245.351 522.098 245.262 521.655 245.262 521.148C245.262 520.641 245.351 520.201 245.531 519.83C245.71 519.453 245.967 519.165 246.301 518.967C246.635 518.762 247.027 518.66 247.479 518.66ZM253.481 523.506L251.394 521.148H251.375V523.506H250.559V516.896H251.375V520.749H251.394L253.295 518.79H254.306L252.192 520.925L254.557 523.506H253.481Z" fill="#888888"/>
<path d="M296.897 222.31C294.192 222.31 291.948 224.34 291.609 226.955H282.664C282.327 224.34 280.083 222.31 277.378 222.31C274.673 222.31 272.428 224.34 272.09 226.955H263.145C262.807 224.34 260.563 222.31 257.858 222.31C255.153 222.31 252.909 224.34 252.571 226.955H243.626C243.287 224.34 241.043 222.31 238.339 222.31C235.634 222.31 233.39 224.34 233.052 226.955H224.107C223.768 224.34 221.524 222.31 218.819 222.31C216.114 222.31 213.87 224.34 213.532 226.955H204.587C204.249 224.34 202.005 222.31 199.3 222.31C196.595 222.31 194.351 224.34 194.013 226.955H185.068C184.73 224.34 182.486 222.31 179.781 222.31C176.83 222.31 174.463 224.709 174.463 227.632C174.463 230.555 176.86 232.955 179.781 232.955C182.486 232.955 184.73 230.924 185.068 228.309H194.013C194.351 230.924 196.595 232.955 199.3 232.955C202.005 232.955 204.249 230.924 204.587 228.309H213.532C213.87 230.924 216.114 232.955 218.819 232.955C221.524 232.955 223.768 230.924 224.107 228.309H233.052C233.39 230.924 235.634 232.955 238.339 232.955C241.043 232.955 243.287 230.924 243.626 228.309H252.571C252.909 230.924 255.153 232.955 257.858 232.955C260.563 232.955 262.807 230.924 263.145 228.309H272.09C272.428 230.924 274.673 232.955 277.378 232.955C280.083 232.955 282.327 230.924 282.664 228.309H291.609C291.948 230.924 294.192 232.955 296.897 232.955C299.848 232.955 302.215 230.555 302.215 227.632C302.215 224.709 299.817 222.31 296.897 222.31ZM179.903 231.601C177.721 231.601 175.938 229.816 175.938 227.632C175.938 225.448 177.721 223.663 179.903 223.663C182.086 223.663 183.869 225.448 183.869 227.632C183.869 229.816 182.086 231.601 179.903 231.601ZM199.392 231.601C197.21 231.601 195.427 229.816 195.427 227.632C195.427 225.448 197.21 223.663 199.392 223.663C201.575 223.663 203.358 225.448 203.358 227.632C203.358 229.816 201.575 231.601 199.392 231.601ZM218.911 231.601C216.729 231.601 214.946 229.816 214.946 227.632C214.946 225.448 216.729 223.663 218.911 223.663C221.094 223.663 222.877 225.448 222.877 227.632C222.877 229.816 221.094 231.601 218.911 231.601ZM238.4 231.601C236.218 231.601 234.435 229.816 234.435 227.632C234.435 225.448 236.218 223.663 238.4 223.663C240.582 223.663 242.365 225.448 242.365 227.632C242.365 229.816 240.582 231.601 238.4 231.601ZM257.889 231.601C255.707 231.601 253.923 229.816 253.923 227.632C253.923 225.448 255.707 223.663 257.889 223.663C260.071 223.663 261.854 225.448 261.854 227.632C261.854 229.816 260.071 231.601 257.889 231.601ZM277.408 231.601C275.226 231.601 273.443 229.816 273.443 227.632C273.443 225.448 275.226 223.663 277.408 223.663C279.59 223.663 281.373 225.448 281.373 227.632C281.373 229.816 279.59 231.601 277.408 231.601ZM296.897 231.601C294.714 231.601 292.931 229.816 292.931 227.632C292.931 225.448 294.714 223.663 296.897 223.663C299.079 223.663 300.862 225.448 300.862 227.632C300.862 229.816 299.079 231.601 296.897 231.601Z" fill="black"/>
<path d="M238.401 424.321C235.45 424.321 233.083 421.921 233.083 418.998C233.083 416.076 235.481 413.676 238.401 413.676C241.321 413.676 243.719 416.076 243.719 418.998C243.719 421.921 241.321 424.321 238.401 424.321ZM238.401 415.03C236.219 415.03 234.436 416.814 234.436 418.998C234.436 421.183 236.219 422.968 238.401 422.968C240.584 422.968 242.367 421.183 242.367 418.998C242.367 416.814 240.584 415.03 238.401 415.03Z" fill="black"/>
<path d="M134.2 290.457C134.2 287.75 132.171 285.504 129.559 285.166V276.213C132.171 275.874 134.2 273.628 134.2 270.921C134.2 267.967 131.803 265.598 128.882 265.598C125.962 265.598 123.564 267.998 123.564 270.921C123.564 273.628 125.593 275.874 128.206 276.213V285.166C125.593 285.504 123.564 287.75 123.564 290.457C123.564 293.165 125.593 295.41 128.206 295.749V304.702C125.593 305.04 123.564 307.286 123.564 309.994C123.564 312.701 125.593 314.948 128.206 315.286V324.239C125.593 324.577 123.564 326.823 123.564 329.53C123.564 332.238 125.593 334.484 128.206 334.822V343.775C125.593 344.113 123.564 346.36 123.564 349.067C123.564 351.775 125.593 354.021 128.206 354.359V363.312C125.593 363.651 123.564 365.897 123.564 368.604C123.564 371.311 125.593 373.557 128.206 373.895V382.848C125.593 383.187 123.564 385.433 123.564 388.14C123.564 390.848 125.593 393.094 128.206 393.432V401.985C125.593 402.324 123.564 404.57 123.564 407.277C123.564 410.23 125.962 412.6 128.882 412.6C131.803 412.6 134.2 410.2 134.2 407.277C134.2 404.57 132.171 402.324 129.559 401.985V393.432C132.171 393.094 134.2 390.848 134.2 388.14C134.2 385.433 132.171 383.187 129.559 382.848V373.895C132.171 373.557 134.2 371.311 134.2 368.604C134.2 365.897 132.171 363.651 129.559 363.312V354.359C132.171 354.021 134.2 351.775 134.2 349.067C134.2 346.36 132.171 344.113 129.559 343.775V334.822C132.171 334.484 134.2 332.238 134.2 329.53C134.2 326.823 132.171 324.577 129.559 324.239V315.286C132.171 314.948 134.2 312.701 134.2 309.994C134.2 307.286 132.171 305.04 129.559 304.702V295.749C132.171 295.41 134.2 293.165 134.2 290.457Z" fill="black"/>
<path d="M323.557 329.315C323.557 326.607 321.528 324.361 318.915 324.023V315.07C321.528 314.731 323.557 312.486 323.557 309.778C323.557 306.825 321.159 304.456 318.239 304.456C315.318 304.456 312.921 306.855 312.921 309.778C312.921 312.486 314.949 314.731 317.562 315.07V324.023C314.949 324.361 312.921 326.607 312.921 329.315C312.921 332.022 314.949 334.268 317.562 334.607V343.56C314.949 343.898 312.921 346.144 312.921 348.851C312.921 351.559 314.949 353.805 317.562 354.143V363.096C314.949 363.434 312.921 365.68 312.921 368.388C312.921 371.342 315.318 373.711 318.239 373.711C321.159 373.711 323.557 371.311 323.557 368.388C323.557 365.68 321.528 363.434 318.915 363.096V354.143C321.528 353.805 323.557 351.559 323.557 348.851C323.557 346.144 321.528 343.898 318.915 343.56V334.607C321.528 334.268 323.557 332.022 323.557 329.315Z" fill="black"/>
<path d="M286.945 445.272C284.24 445.272 281.996 447.303 281.659 449.918H272.713C272.375 447.303 270.131 445.272 267.426 445.272C264.721 445.272 262.477 447.303 262.139 449.918H253.194C252.856 447.303 250.612 445.272 247.907 445.272C245.202 445.272 242.958 447.303 242.619 449.918H233.674C233.336 447.303 231.093 445.272 228.388 445.272C225.683 445.272 223.439 447.303 223.1 449.918H214.155C213.817 447.303 211.573 445.272 208.868 445.272C206.163 445.272 203.919 447.303 203.581 449.918H195.035C194.697 447.303 192.454 445.272 189.749 445.272C186.797 445.272 184.431 447.672 184.431 450.595C184.431 453.518 186.828 455.918 189.749 455.918C192.454 455.918 194.697 453.887 195.035 451.271H203.581C203.919 453.887 206.163 455.918 208.868 455.918C211.573 455.918 213.817 453.887 214.155 451.271H223.1C223.439 453.887 225.683 455.918 228.388 455.918C231.093 455.918 233.336 453.887 233.674 451.271H242.619C242.958 453.887 245.202 455.918 247.907 455.918C250.612 455.918 252.856 453.887 253.194 451.271H262.139C262.477 453.887 264.721 455.918 267.426 455.918C270.131 455.918 272.375 453.887 272.713 451.271H281.659C281.996 453.887 284.24 455.918 286.945 455.918C289.896 455.918 292.263 453.518 292.263 450.595C292.263 447.672 289.866 445.272 286.945 445.272Z" fill="black"/>
<path d="M248.52 253.905C245.815 253.905 243.571 255.936 243.232 258.551H234.287C233.949 255.936 231.705 253.905 229.001 253.905C226.05 253.905 223.683 256.305 223.683 259.228C223.683 262.151 226.08 264.55 229.001 264.55C231.705 264.55 233.949 262.519 234.287 259.905H243.232C243.571 262.519 245.815 264.55 248.52 264.55C251.471 264.55 253.838 262.151 253.838 259.228C253.838 256.305 251.44 253.905 248.52 253.905Z" fill="black"/>
<path d="M354.992 280.704C354.992 277.996 352.964 275.751 350.351 275.412V266.459C352.964 266.121 354.992 263.875 354.992 261.167C354.992 258.214 352.595 255.845 349.674 255.845C346.754 255.845 344.356 258.244 344.356 261.167C344.356 263.875 346.385 266.121 348.998 266.459V275.412C346.385 275.751 344.356 277.996 344.356 280.704C344.356 283.412 346.385 285.658 348.998 285.996V294.949C346.385 295.287 344.356 297.534 344.356 300.241C344.356 302.948 346.385 305.194 348.998 305.532V314.485C346.385 314.824 344.356 317.07 344.356 319.777C344.356 322.485 346.385 324.731 348.998 325.069V334.022C346.385 334.361 344.356 336.607 344.356 339.314C344.356 342.021 346.385 344.267 348.998 344.605V353.558C346.385 353.897 344.356 356.143 344.356 358.85C344.356 361.558 346.385 363.804 348.998 364.143V373.096C346.385 373.434 344.356 375.68 344.356 378.387C344.356 381.094 346.385 383.34 348.998 383.679V392.232C346.385 392.57 344.356 394.816 344.356 397.524C344.356 400.231 346.385 402.477 348.998 402.816V411.769C346.385 412.107 344.356 414.353 344.356 417.06C344.356 420.014 346.754 422.383 349.674 422.383C352.595 422.383 354.992 419.983 354.992 417.06C354.992 414.353 352.964 412.107 350.351 411.769V402.816C352.964 402.477 354.992 400.231 354.992 397.524C354.992 394.816 352.964 392.57 350.351 392.232V383.679C352.964 383.34 354.992 381.094 354.992 378.387C354.992 375.68 352.964 373.434 350.351 373.096V364.143C352.964 363.804 354.992 361.558 354.992 358.85C354.992 356.143 352.964 353.897 350.351 353.558V344.605C352.964 344.267 354.992 342.021 354.992 339.314C354.992 336.607 352.964 334.361 350.351 334.022V325.069C352.964 324.731 354.992 322.485 354.992 319.777C354.992 317.07 352.964 314.824 350.351 314.485V305.532C352.964 305.194 354.992 302.948 354.992 300.241C354.992 297.534 352.964 295.287 350.351 294.949V285.996C352.964 285.658 354.992 283.412 354.992 280.704ZM345.709 261.198C345.709 259.014 347.492 257.229 349.674 257.229C351.857 257.229 353.64 259.014 353.64 261.198C353.64 263.383 351.857 265.167 349.674 265.167C347.492 265.167 345.709 263.383 345.709 261.198ZM345.709 280.704C345.709 278.52 347.492 276.735 349.674 276.735C351.857 276.735 353.64 278.52 353.64 280.704C353.64 282.889 351.857 284.673 349.674 284.673C347.492 284.673 345.709 282.889 345.709 280.704ZM353.64 416.937C353.64 419.122 351.857 420.906 349.674 420.906C347.492 420.906 345.709 419.122 345.709 416.937C345.709 414.753 347.492 412.968 349.674 412.968C351.857 412.968 353.64 414.753 353.64 416.937ZM353.64 397.401C353.64 399.585 351.857 401.37 349.674 401.37C347.492 401.37 345.709 399.585 345.709 397.401C345.709 395.216 347.492 393.432 349.674 393.432C351.857 393.432 353.64 395.216 353.64 397.401ZM353.64 378.295C353.64 380.479 351.857 382.263 349.674 382.263C347.492 382.263 345.709 380.479 345.709 378.295C345.709 376.111 347.492 374.326 349.674 374.326C351.857 374.326 353.64 376.111 353.64 378.295ZM353.64 358.789C353.64 360.974 351.857 362.758 349.674 362.758C347.492 362.758 345.709 360.974 345.709 358.789C345.709 356.605 347.492 354.82 349.674 354.82C351.857 354.82 353.64 356.605 353.64 358.789ZM353.64 339.252C353.64 341.437 351.857 343.222 349.674 343.222C347.492 343.222 345.709 341.437 345.709 339.252C345.709 337.068 347.492 335.284 349.674 335.284C351.857 335.284 353.64 337.068 353.64 339.252ZM353.64 319.746C353.64 321.931 351.857 323.716 349.674 323.716C347.492 323.716 345.709 321.931 345.709 319.746C345.709 317.562 347.492 315.778 349.674 315.778C351.857 315.778 353.64 317.562 353.64 319.746ZM353.64 300.241C353.64 302.425 351.857 304.21 349.674 304.21C347.492 304.21 345.709 302.425 345.709 300.241C345.709 298.056 347.492 296.272 349.674 296.272C351.857 296.272 353.64 298.056 353.64 300.241Z" fill="black"/>
<path d="M165.095 339.068C165.095 336.36 163.066 334.114 160.453 333.776V324.823C163.066 324.484 165.095 322.238 165.095 319.531C165.095 316.578 162.697 314.208 159.777 314.208C156.857 314.208 154.459 316.608 154.459 319.531C154.459 322.238 156.488 324.484 159.101 324.823V333.776C156.488 334.114 154.459 336.36 154.459 339.068C154.459 341.775 156.488 344.021 159.101 344.36V353.313C156.488 353.651 154.459 355.897 154.459 358.604C154.459 361.557 156.857 363.927 159.777 363.927C162.697 363.927 165.095 361.527 165.095 358.604C165.095 355.897 163.066 353.651 160.453 353.313V344.36C163.066 344.021 165.095 341.775 165.095 339.068ZM155.812 319.562C155.812 317.377 157.595 315.593 159.777 315.593C161.96 315.593 163.743 317.377 163.743 319.562C163.743 321.746 161.96 323.531 159.777 323.531C157.595 323.531 155.812 321.746 155.812 319.562ZM155.812 339.068C155.812 336.883 157.595 335.099 159.777 335.099C161.96 335.099 163.743 336.883 163.743 339.068C163.743 341.252 161.96 343.036 159.777 343.036C157.595 343.036 155.812 341.252 155.812 339.068ZM163.711 358.574C163.711 360.758 161.929 362.542 159.746 362.542C157.564 362.542 155.781 360.758 155.781 358.574C155.781 356.389 157.564 354.604 159.746 354.604C161.929 354.604 163.711 356.389 163.711 358.574Z" fill="black"/>
<path d="M257.891 333.745C255.186 333.745 252.942 335.775 252.604 338.39H243.659C243.351 335.991 241.445 334.114 239.079 333.806V324.853C241.692 324.515 243.72 322.269 243.72 319.561C243.72 316.608 241.323 314.239 238.402 314.239C235.482 314.239 233.084 316.638 233.084 319.561C233.084 322.269 235.113 324.515 237.726 324.853V333.806C235.328 334.114 233.453 336.022 233.146 338.39H224.201C223.862 335.775 221.619 333.745 218.914 333.745C215.963 333.745 213.596 336.144 213.596 339.067C213.596 341.99 215.993 344.39 218.914 344.39C221.619 344.39 223.862 342.36 224.201 339.744H233.146C233.453 342.144 235.359 344.021 237.726 344.328V353.281C235.113 353.62 233.084 355.866 233.084 358.573C233.084 361.527 235.482 363.896 238.402 363.896C241.323 363.896 243.72 361.496 243.72 358.573C243.72 355.866 241.692 353.62 239.079 353.281V344.328C241.476 344.021 243.351 342.113 243.659 339.744H252.604C252.942 342.36 255.186 344.39 257.891 344.39C260.842 344.39 263.209 341.99 263.209 339.067C263.209 336.144 260.811 333.745 257.891 333.745ZM218.914 343.036C216.731 343.036 214.949 341.252 214.949 339.067C214.949 336.883 216.731 335.099 218.914 335.099C221.097 335.099 222.879 336.883 222.879 339.067C222.879 341.252 221.097 343.036 218.914 343.036ZM234.437 319.561C234.437 317.377 236.22 315.593 238.402 315.593C240.585 315.593 242.367 317.377 242.367 319.561C242.367 321.746 240.585 323.531 238.402 323.531C236.22 323.531 234.437 321.746 234.437 319.561ZM242.367 358.573C242.367 360.758 240.585 362.542 238.402 362.542C236.22 362.542 234.437 360.758 234.437 358.573C234.437 356.389 236.22 354.604 238.402 354.604C240.585 354.604 242.367 356.389 242.367 358.573ZM238.402 343.036C236.22 343.036 234.437 341.252 234.437 339.067C234.437 336.883 236.22 335.099 238.402 335.099C240.585 335.099 242.367 336.883 242.367 339.067C242.367 341.252 240.585 343.036 238.402 343.036ZM257.891 343.036C255.708 343.036 253.925 341.252 253.925 339.067C253.925 336.883 255.708 335.099 257.891 335.099C260.073 335.099 261.856 336.883 261.856 339.067C261.856 341.252 260.073 343.036 257.891 343.036Z" fill="black"/>
<path d="M277.876 379.678V298.424C280.489 298.086 282.517 295.84 282.517 293.133C282.517 290.179 280.12 287.81 277.199 287.81C274.494 287.81 272.251 289.84 271.913 292.456H262.967C262.629 289.84 260.385 287.81 257.68 287.81C254.975 287.81 252.731 289.84 252.393 292.456H243.448C243.11 289.84 240.866 287.81 238.161 287.81C235.456 287.81 233.212 289.84 232.874 292.456H223.928C223.591 289.84 221.347 287.81 218.642 287.81C215.937 287.81 213.692 289.84 213.354 292.456H204.809C204.471 289.84 202.227 287.81 199.522 287.81C196.571 287.81 194.204 290.21 194.204 293.133C194.204 295.84 196.233 298.086 198.846 298.424V379.678C196.233 380.016 194.204 382.263 194.204 384.97C194.204 387.923 196.602 390.293 199.522 390.293C202.227 390.293 204.471 388.262 204.809 385.646H213.354C213.692 388.262 215.937 390.293 218.642 390.293C221.347 390.293 223.591 388.262 223.928 385.646H232.874C233.212 388.262 235.456 390.293 238.161 390.293C240.866 390.293 243.11 388.262 243.448 385.646H252.393C252.731 388.262 254.975 390.293 257.68 390.293C260.385 390.293 262.629 388.262 262.967 385.646H271.913C272.251 388.262 274.494 390.293 277.199 390.293C280.15 390.293 282.517 387.892 282.517 384.97C282.517 382.263 280.489 380.016 277.876 379.678ZM262.998 384.293C262.66 381.678 260.416 379.647 257.711 379.647C255.006 379.647 252.762 381.678 252.424 384.293H243.479C243.14 381.678 240.896 379.647 238.191 379.647C235.486 379.647 233.243 381.678 232.905 384.293H223.96C223.621 381.678 221.377 379.647 218.672 379.647C215.967 379.647 213.723 381.678 213.385 384.293H204.84C204.532 381.893 202.626 380.016 200.259 379.708V298.455C202.657 298.148 204.532 296.24 204.84 293.871H213.385C213.723 296.486 215.967 298.516 218.672 298.516C221.377 298.516 223.621 296.486 223.96 293.871H232.905C233.243 296.486 235.486 298.516 238.191 298.516C240.896 298.516 243.14 296.486 243.479 293.871H252.424C252.762 296.486 255.006 298.516 257.711 298.516C260.416 298.516 262.66 296.486 262.998 293.871H271.943C272.251 296.27 274.157 298.148 276.523 298.455V379.708C274.125 380.016 272.251 381.924 271.943 384.293H262.998Z" fill="black"/>
<path d="M222.859 305.208H228.973V305.789H222.859V305.208ZM222.351 309.027H229.482V309.608H222.351V309.027ZM225.578 302.669H226.214V309.401H225.578V302.669Z" fill="#888888"/>
<path d="M238.338 303.812H234.934V305.901H238.144V306.653H234.934V308.9H238.44V309.661H234.081V303.051H238.338V303.812ZM241.335 304.815C242.486 304.815 243.19 305.4 243.19 306.644V308.454C243.19 308.974 243.237 309.373 243.302 309.661H242.56C242.513 309.447 242.495 309.187 242.495 308.974H242.476C242.152 309.475 241.604 309.763 240.844 309.763C239.861 309.763 239.249 309.178 239.249 308.38C239.249 307.6 239.684 307.108 241.039 306.895C241.456 306.83 242.031 306.765 242.402 306.737V306.551C242.402 305.771 241.966 305.446 241.335 305.446C240.649 305.446 240.287 305.827 240.26 306.384H239.443C239.49 305.493 240.139 304.815 241.335 304.815ZM242.402 307.646V307.359C242.04 307.387 241.53 307.442 241.168 307.507C240.362 307.628 240.083 307.86 240.083 308.324C240.083 308.807 240.436 309.132 241.048 309.132C241.428 309.132 241.79 309.002 242.022 308.76C242.309 308.463 242.402 308.203 242.402 307.646ZM246.773 304.899C246.875 304.899 247.014 304.908 247.116 304.936V305.669C247.014 305.66 246.894 305.641 246.792 305.641C245.901 305.641 245.401 306.217 245.401 307.257V309.661H244.584V304.945H245.363V305.669H245.382C245.697 305.149 246.17 304.899 246.773 304.899ZM249.713 309.02C249.834 309.02 249.964 309.002 250.047 308.974V309.642C249.908 309.679 249.695 309.698 249.528 309.698C248.628 309.698 248.248 309.317 248.248 308.343V305.595H247.432V304.945H248.248V303.803H249.064V304.945H250.001V305.595H249.064V308.259C249.064 308.798 249.24 309.02 249.713 309.02ZM251.841 305.539H251.859C252.184 305.066 252.713 304.843 253.26 304.843C254.336 304.843 254.966 305.493 254.966 306.783V309.661H254.15V306.848C254.15 305.864 253.742 305.511 253.065 305.511C252.397 305.511 251.841 306.003 251.841 306.959V309.661H251.024V303.051H251.841V305.539Z" fill="#888888"/>
<path d="M224.073 374.372L224.471 373.998C224.768 374.088 225.064 374.189 225.361 374.3C225.663 374.406 225.95 374.512 226.22 374.618C226.49 374.719 226.723 374.814 226.919 374.905L226.403 375.31C226.223 375.215 226.008 375.114 225.759 375.008C225.51 374.902 225.239 374.793 224.948 374.682C224.662 374.576 224.37 374.472 224.073 374.372ZM220.09 368.595H226.49V369.064H220.09V368.595ZM219.701 370.473H226.848V370.99H219.701V370.473ZM222.944 370.664H223.533V373.807H222.944V370.664ZM221.195 372.923V373.584H225.393V372.923H221.195ZM221.195 371.865V372.51H225.393V371.865H221.195ZM220.615 371.42H225.989V374.021H220.615V371.42ZM221.951 373.998L222.483 374.34C222.266 374.467 222.017 374.592 221.736 374.714C221.46 374.841 221.172 374.955 220.87 375.056C220.573 375.162 220.292 375.252 220.027 375.326C219.974 375.268 219.905 375.196 219.82 375.112C219.741 375.032 219.669 374.966 219.605 374.913C219.876 374.838 220.159 374.753 220.456 374.658C220.758 374.557 221.039 374.449 221.299 374.332C221.564 374.215 221.781 374.104 221.951 373.998ZM221.577 367.974H222.157V369.637H224.399V367.974H225.004V370.075H221.577V367.974Z" fill="#888888"/>
<path d="M233.824 375.006H232.971V372.267L230.587 368.396H231.579L232.386 369.761C232.702 370.293 233.036 370.875 233.388 371.506H233.407C233.759 370.875 234.093 370.293 234.408 369.761L235.224 368.396H236.208L233.824 372.267V375.006ZM237.848 374.504C238.182 374.504 238.457 374.421 238.673 374.254C238.896 374.087 239.035 373.867 239.091 373.595H239.926C239.839 374.034 239.613 374.402 239.248 374.699C238.889 374.99 238.423 375.136 237.848 375.136C237.39 375.136 236.995 375.031 236.661 374.82C236.327 374.61 236.07 374.313 235.891 373.929C235.717 373.546 235.631 373.097 235.631 372.583C235.631 372.119 235.717 371.704 235.891 371.339C236.07 370.967 236.323 370.68 236.651 370.475C236.985 370.265 237.375 370.16 237.82 370.16C238.345 370.16 238.787 370.306 239.146 370.596C239.511 370.887 239.755 371.29 239.879 371.803C239.941 372.057 239.972 372.394 239.972 372.815H236.447C236.466 373.372 236.602 373.793 236.855 374.077C237.115 374.362 237.446 374.504 237.848 374.504ZM237.82 370.791C237.437 370.791 237.124 370.915 236.883 371.162C236.642 371.404 236.5 371.747 236.457 372.193H239.165C239.121 371.741 238.979 371.394 238.738 371.153C238.497 370.912 238.191 370.791 237.82 370.791ZM241.074 375.006V368.396H241.89V375.006H241.074ZM243.338 375.006V368.396H244.154V375.006H243.338ZM247.495 370.16C248.187 370.16 248.734 370.383 249.136 370.828C249.538 371.274 249.739 371.881 249.739 372.648C249.739 373.416 249.538 374.022 249.136 374.467C248.734 374.913 248.187 375.136 247.495 375.136C246.802 375.136 246.255 374.913 245.853 374.467C245.457 374.022 245.259 373.416 245.259 372.648C245.259 371.881 245.457 371.274 245.853 370.828C246.255 370.383 246.802 370.16 247.495 370.16ZM247.495 370.828C247.068 370.828 246.731 370.993 246.484 371.32C246.236 371.642 246.113 372.085 246.113 372.648C246.113 373.211 246.236 373.657 246.484 373.984C246.731 374.307 247.068 374.467 247.495 374.467C247.927 374.467 248.268 374.307 248.515 373.984C248.762 373.657 248.886 373.211 248.886 372.648C248.886 372.085 248.762 371.642 248.515 371.32C248.268 370.993 247.927 370.828 247.495 370.828ZM254.752 375.006L254.196 372.963C254.128 372.703 254.084 372.53 254.066 372.443C253.918 371.893 253.788 371.385 253.676 370.921H253.658C253.547 371.385 253.417 371.893 253.268 372.443C253.25 372.53 253.207 372.703 253.138 372.963L252.582 375.006H251.413L250.161 370.29H250.987L251.487 372.258C251.636 372.852 251.809 373.557 252.007 374.374H252.025C252.192 373.669 252.365 372.979 252.545 372.304L253.083 370.29H254.251L254.789 372.304L255.309 374.374H255.327C255.525 373.557 255.698 372.852 255.847 372.258L256.348 370.29H257.173L255.921 375.006H254.752Z" fill="#888888"/>
<path d="M311.973 224.1V224.959C310.892 226.53 309.938 228.683 309.429 231.251H308.358C309.005 228.376 310.044 226.286 310.987 224.949H307.033V224.1H311.973Z" fill="#888888"/>
<path d="M128.914 254.233C130.292 254.233 131.278 255.029 131.278 256.196C131.278 256.97 130.79 257.532 130.027 257.819V257.84C130.907 258.105 131.415 258.721 131.415 259.601C131.415 260.853 130.398 261.681 128.914 261.681C127.43 261.681 126.423 260.853 126.423 259.601C126.423 258.721 126.932 258.105 127.801 257.84V257.819C127.048 257.532 126.561 256.97 126.561 256.196C126.561 255.029 127.546 254.233 128.914 254.233ZM128.914 255.071C128.087 255.071 127.525 255.527 127.525 256.227C127.525 256.97 128.066 257.437 128.914 257.437C129.762 257.437 130.302 256.97 130.302 256.227C130.302 255.527 129.741 255.071 128.914 255.071ZM128.914 258.264C128.023 258.264 127.409 258.784 127.409 259.538C127.409 260.323 128.013 260.832 128.914 260.832C129.815 260.832 130.419 260.323 130.419 259.538C130.419 258.784 129.804 258.264 128.914 258.264Z" fill="#888888"/>
<path d="M159.789 302.859C161.231 302.859 162.132 303.633 162.132 304.811C162.132 305.66 161.729 306.169 160.892 306.477V306.498C161.814 306.806 162.248 307.357 162.248 308.28C162.248 309.49 161.252 310.307 159.8 310.307C158.22 310.307 157.33 309.447 157.33 308.004H158.316C158.316 308.959 158.835 309.469 159.8 309.469C160.669 309.469 161.252 308.97 161.252 308.248C161.252 307.41 160.658 306.954 159.556 306.954H159.27V306.137H159.556C160.542 306.137 161.146 305.649 161.146 304.896C161.146 304.174 160.595 303.697 159.747 303.697C158.878 303.697 158.379 304.164 158.379 305.119H157.394C157.394 303.697 158.316 302.859 159.789 302.859Z" fill="#888888"/>
<path d="M321.003 298.366H319.837V300.212H318.873V298.366H315.502V297.485L318.534 293.061H319.837V297.559H321.003V298.366ZM316.435 297.559H318.883V296.583C318.883 295.703 318.894 294.812 318.915 293.92H318.894C318.353 294.759 317.813 295.565 317.251 296.382L316.435 297.559Z" fill="#888888"/>
<path d="M349.472 252.287C348.189 252.287 347.384 251.533 347.267 250.303H348.264C348.391 251.045 348.804 251.438 349.504 251.438C350.5 251.438 351.168 250.61 351.21 248.733H351.189C350.786 249.316 350.193 249.645 349.43 249.645C348.083 249.645 347.172 248.701 347.172 247.3C347.172 245.836 348.158 244.839 349.61 244.839C351.232 244.839 352.133 245.985 352.133 248.287C352.133 250.897 351.157 252.287 349.472 252.287ZM349.599 248.849C350.458 248.849 351.041 248.202 351.041 247.279C351.041 246.303 350.49 245.688 349.61 245.688C348.751 245.688 348.179 246.314 348.179 247.279C348.179 248.213 348.741 248.849 349.599 248.849Z" fill="#888888"/>
<path d="M274.872 283.635H273.907V278.426H272.307V277.683C273.42 277.683 273.907 277.354 274.045 276.484H274.872V283.635ZM280.124 276.335C281.799 276.335 282.711 277.651 282.711 280.059C282.711 282.468 281.799 283.783 280.124 283.783C278.449 283.783 277.538 282.468 277.538 280.059C277.538 277.651 278.449 276.335 280.124 276.335ZM280.124 277.195C279.107 277.195 278.555 278.192 278.555 280.059C278.555 281.937 279.107 282.945 280.124 282.945C281.152 282.945 281.704 281.937 281.704 280.059C281.704 278.192 281.152 277.195 280.124 277.195Z" fill="#888888"/>
<path d="M260.863 255.448C262.23 255.448 263.142 256.244 263.142 257.443C263.142 258.695 262.326 259.278 261.181 259.947C259.75 260.774 259.464 261.241 259.453 261.909H263.312V262.747H258.383C258.372 262.673 258.372 262.588 258.372 262.535C258.372 261.177 258.711 260.403 260.481 259.374C261.563 258.737 262.124 258.345 262.124 257.464C262.124 256.774 261.637 256.297 260.852 256.297C259.941 256.297 259.517 256.817 259.464 257.697H258.467C258.52 256.276 259.443 255.448 260.863 255.448Z" fill="#888888"/>
<path d="M253.013 316.655H249.78L249.568 318.872H249.589C249.918 318.49 250.458 318.278 251.031 318.278C252.43 318.278 253.342 319.201 253.342 320.633C253.342 322.15 252.356 323.126 250.84 323.126C249.441 323.126 248.519 322.352 248.519 321.079H249.515C249.526 321.843 250.087 322.278 250.84 322.278C251.762 322.278 252.335 321.673 252.335 320.665C252.335 319.678 251.773 319.105 250.893 319.105C250.193 319.105 249.706 319.466 249.536 320.113L248.572 320.05L248.964 315.827H253.013V316.655Z" fill="#888888"/>
<path d="M251.625 422.441H250.66V417.232H249.06V416.489C250.173 416.489 250.66 416.16 250.798 415.29H251.625V422.441Z" fill="#888888"/>
<path d="M299.821 446.638C301.103 446.638 301.909 447.391 302.026 448.622H301.029C300.902 447.879 300.489 447.486 299.789 447.486C298.793 447.486 298.125 448.314 298.082 450.192H298.104C298.506 449.608 299.1 449.279 299.863 449.279C301.209 449.279 302.121 450.224 302.121 451.624C302.121 453.088 301.135 454.085 299.683 454.085C298.061 454.085 297.16 452.94 297.16 450.637C297.16 448.028 298.135 446.638 299.821 446.638ZM299.694 450.075C298.835 450.075 298.252 450.722 298.252 451.645C298.252 452.621 298.803 453.237 299.683 453.237C300.542 453.237 301.114 452.611 301.114 451.645C301.114 450.712 300.552 450.075 299.694 450.075Z" fill="#888888"/>
</g>
</g>
<defs>
<clipPath id="clip0_1356_6192">
<rect width="477" height="679" fill="white"/>
</clipPath>
</defs>
</svg>
