<svg width="477" height="679" viewBox="0 0 477 679" fill="none" xmlns="http://www.w3.org/2000/svg">
<g clip-path="url(#clip0_1356_6093)">
<path d="M477 0H0V679H477V0Z" fill="white"/>
<mask id="mask0_1356_6093" style="mask-type:alpha" maskUnits="userSpaceOnUse" x="115" y="216" width="246" height="247">
<path d="M299.304 278.31C299.304 312.101 271.944 339.486 238.182 339.486C204.42 339.486 177.06 366.885 177.06 400.662C177.06 434.44 203.466 460.855 236.385 461.811C169.703 460.869 115.938 406.466 115.938 339.486C115.938 272.507 169.703 218.103 236.385 217.161C236.974 217.147 237.578 217.133 238.182 217.133C238.786 217.133 239.389 217.147 239.979 217.161C272.912 218.117 299.304 245.136 299.304 278.31Z" stroke="black" stroke-miterlimit="10.4334"/>
<path d="M238.18 293.61C246.623 293.61 253.468 286.76 253.468 278.31C253.468 269.859 246.623 263.008 238.18 263.008C229.738 263.008 222.893 269.859 222.893 278.31C222.893 286.76 229.738 293.61 238.18 293.61Z" stroke="black" stroke-miterlimit="10.4334"/>
<path d="M360.423 339.485C360.423 406.465 306.671 460.869 239.976 461.81C239.386 461.824 238.782 461.839 238.179 461.839C237.575 461.839 236.972 461.824 236.382 461.81C203.463 460.855 177.057 433.85 177.057 400.662C177.057 367.474 204.431 339.485 238.179 339.485C271.927 339.485 299.301 312.101 299.301 278.309C299.301 244.518 272.909 218.116 239.976 217.161C306.671 218.102 360.423 272.52 360.423 339.485Z" stroke="black" stroke-miterlimit="10.4334"/>
<path d="M238.18 415.963C246.623 415.963 253.468 409.112 253.468 400.662C253.468 392.212 246.623 385.361 238.18 385.361C229.738 385.361 222.893 392.212 222.893 400.662C222.893 409.112 229.738 415.963 238.18 415.963Z" stroke="black" stroke-miterlimit="10.4334"/>
</mask>
<g mask="url(#mask0_1356_6093)">
<path d="M238.069 461.614C305.521 461.614 360.201 406.885 360.201 339.374C360.201 271.862 305.521 217.133 238.069 217.133C170.618 217.133 115.938 271.862 115.938 339.374C115.938 406.885 170.618 461.614 238.069 461.614Z" fill="black" stroke="black"/>
</g>
<mask id="mask1_1356_6093" style="mask-type:alpha" maskUnits="userSpaceOnUse" x="176" y="216" width="185" height="247">
<path d="M238.178 293.61C246.621 293.61 253.466 286.76 253.466 278.309C253.466 269.859 246.621 263.008 238.178 263.008C229.736 263.008 222.891 269.859 222.891 278.309C222.891 286.76 229.736 293.61 238.178 293.61Z" fill="black" stroke="black" stroke-miterlimit="10.4334"/>
<path d="M239.99 216.83C306.86 217.779 360.753 272.342 360.753 339.485C360.753 406.646 306.855 461.197 239.979 462.142L239.978 462.141C239.39 462.155 238.784 462.17 238.177 462.17C237.569 462.17 236.961 462.155 236.372 462.141H236.371C203.273 461.18 176.724 434.03 176.724 400.662C176.724 367.293 204.245 339.154 238.177 339.154C271.742 339.154 298.968 311.918 298.968 278.309C298.968 244.699 272.722 218.442 239.965 217.492L239.979 216.829C239.98 216.829 239.982 216.83 239.983 216.83L239.984 216.829C239.986 216.829 239.988 216.83 239.99 216.83ZM238.178 385.029C229.552 385.029 222.559 392.028 222.559 400.662C222.559 409.296 229.552 416.295 238.178 416.295C246.804 416.295 253.797 409.296 253.797 400.662C253.797 392.028 246.804 385.029 238.178 385.029Z" fill="black"/>
</mask>
<g mask="url(#mask1_1356_6093)">
<path d="M238.069 462.344C305.521 462.344 360.201 407.615 360.201 340.104C360.201 272.592 305.521 217.863 238.069 217.863C170.618 217.863 115.938 272.592 115.938 340.104C115.938 407.615 170.618 462.344 238.069 462.344Z" fill="black" stroke="black"/>
</g>
</g>
<defs>
<clipPath id="clip0_1356_6093">
<rect width="477" height="679" fill="white"/>
</clipPath>
</defs>
</svg>
