<svg width="477" height="679" viewBox="0 0 477 679" fill="none" xmlns="http://www.w3.org/2000/svg">
<g clip-path="url(#clip0_1356_6246)">
<path d="M477 0H0V679H477V0Z" fill="white"/>
<path d="M348.045 394.64C348.045 392.056 346.108 389.933 343.618 389.625V381.103C346.108 380.796 348.045 378.642 348.045 376.088C348.045 373.535 346.108 371.381 343.618 371.074V362.551C346.108 362.243 348.045 360.09 348.045 357.536C348.045 354.982 346.108 352.829 343.618 352.521V343.999C346.108 343.691 348.045 341.538 348.045 338.984C348.045 336.431 346.108 334.277 343.618 333.969V325.447C346.108 325.14 348.045 322.986 348.045 320.432C348.045 317.879 346.108 315.725 343.618 315.417V306.895C346.108 306.587 348.045 304.433 348.045 301.88C348.045 299.326 346.108 297.173 343.618 296.865V288.343C346.108 288.035 348.045 285.882 348.045 283.328C348.045 280.528 345.77 278.251 342.972 278.251C340.175 278.251 337.9 280.528 337.9 283.328C337.9 285.912 339.837 288.035 342.327 288.343V296.865C339.837 297.173 337.9 299.326 337.9 301.88C337.9 304.433 339.837 306.587 342.327 306.895V315.417C339.837 315.725 337.9 317.879 337.9 320.432C337.9 322.986 339.837 325.14 342.327 325.447V333.969C339.837 334.277 337.9 336.431 337.9 338.984C337.9 341.538 339.837 343.691 342.327 343.999V352.521C339.837 352.829 337.9 354.982 337.9 357.536C337.9 360.09 339.837 362.243 342.327 362.551V371.074C339.837 371.381 337.9 373.535 337.9 376.088C337.9 378.642 339.837 380.796 342.327 381.103V389.625C339.837 389.933 337.9 392.087 337.9 394.64C337.9 397.44 340.175 399.717 342.972 399.717C345.77 399.717 348.045 397.44 348.045 394.64ZM339.222 283.328C339.222 281.236 340.913 279.574 342.972 279.574C345.032 279.574 346.722 281.267 346.722 283.328C346.722 285.39 345.032 287.082 342.972 287.082C340.913 287.082 339.222 285.39 339.222 283.328ZM339.222 301.88C339.222 299.788 340.913 298.127 342.972 298.127C345.032 298.127 346.722 299.819 346.722 301.88C346.722 303.941 345.032 305.634 342.972 305.634C340.913 305.634 339.222 303.941 339.222 301.88ZM339.222 320.432C339.222 318.34 340.913 316.679 342.972 316.679C345.032 316.679 346.722 318.371 346.722 320.432C346.722 322.493 345.032 324.185 342.972 324.185C340.913 324.185 339.222 322.493 339.222 320.432ZM339.222 338.984C339.222 336.892 340.913 335.23 342.972 335.23C345.032 335.23 346.722 336.923 346.722 338.984C346.722 341.046 345.032 342.738 342.972 342.738C340.913 342.738 339.222 341.046 339.222 338.984ZM339.222 357.536C339.222 355.444 340.913 353.783 342.972 353.783C345.032 353.783 346.722 355.475 346.722 357.536C346.722 359.598 345.032 361.29 342.972 361.29C340.913 361.29 339.222 359.598 339.222 357.536ZM339.222 376.088C339.222 373.996 340.913 372.335 342.972 372.335C345.032 372.335 346.722 374.027 346.722 376.088C346.722 378.15 345.032 379.842 342.972 379.842C340.913 379.842 339.222 378.15 339.222 376.088ZM339.222 394.64C339.222 392.548 340.913 390.887 342.972 390.887C345.032 390.887 346.722 392.579 346.722 394.64C346.722 396.702 345.032 398.394 342.972 398.394C340.913 398.394 339.222 396.702 339.222 394.64Z" fill="black"/>
<path d="M345.956 224.226C344.142 226.041 343.988 228.902 345.525 230.902L339.5 236.932C337.502 235.394 334.644 235.548 332.83 237.363C330.863 239.332 330.863 242.562 332.83 244.532C334.797 246.5 338.025 246.5 339.992 244.532C341.806 242.716 341.96 239.855 340.423 237.855L346.447 231.825C348.445 233.363 351.304 233.21 353.117 231.395C355.085 229.425 355.085 226.195 353.117 224.226C351.15 222.257 347.923 222.257 345.956 224.226Z" fill="black"/>
<path d="M293.888 239.455C296.469 239.455 298.591 237.517 298.898 235.025H307.413C307.72 237.517 309.872 239.455 312.423 239.455C315.221 239.455 317.495 237.178 317.495 234.379C317.495 231.579 315.221 229.302 312.423 229.302C309.841 229.302 307.72 231.24 307.413 233.733H298.898C298.591 231.24 296.439 229.302 293.888 229.302C291.336 229.302 289.185 231.24 288.877 233.733H280.363C280.055 231.24 277.903 229.302 275.352 229.302C272.8 229.302 270.649 231.24 270.342 233.733H261.827C261.519 231.24 259.367 229.302 256.816 229.302C254.265 229.302 252.113 231.24 251.806 233.733H243.291C242.984 231.24 240.832 229.302 238.281 229.302C235.729 229.302 233.578 231.24 233.27 233.733H224.755C224.448 231.24 222.297 229.302 219.745 229.302C217.193 229.302 215.042 231.24 214.734 233.733H206.22C205.912 231.24 203.76 229.302 201.209 229.302C198.658 229.302 196.506 231.24 196.199 233.733H188.053C187.745 231.24 185.594 229.302 183.042 229.302C180.491 229.302 178.339 231.24 178.032 233.733H169.517C169.21 231.24 167.058 229.302 164.507 229.302C161.71 229.302 159.435 231.579 159.435 234.379C159.435 237.178 161.71 239.455 164.507 239.455C167.089 239.455 169.21 237.517 169.517 235.025H178.032C178.339 237.517 180.491 239.455 183.042 239.455C185.594 239.455 187.745 237.517 188.053 235.025H196.199C196.506 237.517 198.658 239.455 201.209 239.455C203.76 239.455 205.912 237.517 206.22 235.025H214.734C215.042 237.517 217.193 239.455 219.745 239.455C222.297 239.455 224.448 237.517 224.755 235.025H233.27C233.578 237.517 235.729 239.455 238.281 239.455C240.832 239.455 242.984 237.517 243.291 235.025H251.806C252.113 237.517 254.265 239.455 256.816 239.455C259.367 239.455 261.519 237.517 261.827 235.025H270.342C270.649 237.517 272.8 239.455 275.352 239.455C277.903 239.455 280.055 237.517 280.363 235.025H288.877C289.185 237.517 291.336 239.455 293.888 239.455ZM312.423 230.595C314.514 230.595 316.173 232.287 316.173 234.348C316.173 236.409 314.483 238.101 312.423 238.101C310.364 238.101 308.673 236.409 308.673 234.348C308.673 232.287 310.364 230.595 312.423 230.595ZM293.888 230.595C295.978 230.595 297.638 232.287 297.638 234.348C297.638 236.409 295.947 238.101 293.888 238.101C291.828 238.101 290.137 236.409 290.137 234.348C290.137 232.287 291.828 230.595 293.888 230.595ZM164.537 238.133C162.447 238.133 160.787 236.44 160.787 234.379C160.787 232.317 162.478 230.625 164.537 230.625C166.597 230.625 168.288 232.317 168.288 234.379C168.288 236.44 166.597 238.133 164.537 238.133ZM183.073 238.133C180.983 238.133 179.323 236.44 179.323 234.379C179.323 232.317 181.014 230.625 183.073 230.625C185.133 230.625 186.823 232.317 186.823 234.379C186.823 236.44 185.133 238.133 183.073 238.133ZM201.209 238.133C199.119 238.133 197.459 236.44 197.459 234.379C197.459 232.317 199.149 230.625 201.209 230.625C203.269 230.625 204.96 232.317 204.96 234.379C204.96 236.44 203.269 238.133 201.209 238.133ZM219.745 238.133C217.654 238.133 215.995 236.44 215.995 234.379C215.995 232.317 217.686 230.625 219.745 230.625C221.804 230.625 223.495 232.317 223.495 234.379C223.495 236.44 221.804 238.133 219.745 238.133ZM238.281 238.133C236.19 238.133 234.53 236.44 234.53 234.379C234.53 232.317 236.221 230.625 238.281 230.625C240.34 230.625 242.03 232.317 242.03 234.379C242.03 236.44 240.34 238.133 238.281 238.133ZM256.816 238.133C254.726 238.133 253.066 236.44 253.066 234.379C253.066 232.317 254.756 230.625 256.816 230.625C258.876 230.625 260.567 232.317 260.567 234.379C260.567 236.44 258.876 238.133 256.816 238.133ZM275.352 238.133C273.261 238.133 271.602 236.44 271.602 234.379C271.602 232.317 273.292 230.625 275.352 230.625C277.411 230.625 279.102 232.317 279.102 234.379C279.102 236.44 277.411 238.133 275.352 238.133Z" fill="black"/>
<path d="M139.019 338.985C139.019 336.401 137.083 334.278 134.592 333.97V325.448C137.083 325.141 139.019 322.987 139.019 320.434C139.019 317.633 136.744 315.357 133.947 315.357C131.15 315.357 128.875 317.633 128.875 320.434C128.875 323.018 130.811 325.141 133.302 325.448V333.97C130.811 334.278 128.875 336.432 128.875 338.985C128.875 341.539 130.811 343.693 133.302 344V352.522C130.811 352.83 128.875 354.984 128.875 357.537C128.875 360.337 131.15 362.614 133.947 362.614C136.744 362.614 139.019 360.337 139.019 357.537C139.019 354.953 137.083 352.83 134.592 352.522V344C137.083 343.693 139.019 341.539 139.019 338.985ZM130.197 320.434C130.197 318.341 131.887 316.68 133.947 316.68C136.007 316.68 137.698 318.372 137.698 320.434C137.698 322.494 136.007 324.187 133.947 324.187C131.887 324.187 130.197 322.494 130.197 320.434ZM130.197 338.985C130.197 336.893 131.887 335.232 133.947 335.232C136.007 335.232 137.698 336.924 137.698 338.985C137.698 341.047 136.007 342.739 133.947 342.739C131.887 342.739 130.197 341.047 130.197 338.985ZM137.728 357.537C137.728 359.63 136.037 361.291 133.978 361.291C131.919 361.291 130.228 359.599 130.228 357.537C130.228 355.476 131.919 353.784 133.978 353.784C136.037 353.784 137.728 355.476 137.728 357.537Z" fill="black"/>
<path d="M256.991 333.909C254.409 333.909 252.288 335.847 251.98 338.339H243.466C243.158 336.062 241.375 334.248 239.1 333.97V325.448C241.591 325.141 243.527 322.987 243.527 320.434C243.527 317.633 241.252 315.357 238.455 315.357C235.658 315.357 233.383 317.633 233.383 320.434C233.383 323.018 235.32 325.141 237.81 325.448V333.97C235.535 334.278 233.722 336.062 233.445 338.339H224.93C224.623 335.847 222.471 333.909 219.92 333.909C217.122 333.909 214.848 336.186 214.848 338.985C214.848 341.785 217.122 344.062 219.92 344.062C222.502 344.062 224.623 342.124 224.93 339.631H233.445C233.752 341.908 235.535 343.723 237.81 344V352.522C235.32 352.83 233.383 354.984 233.383 357.537C233.383 360.337 235.658 362.614 238.455 362.614C241.252 362.614 243.527 360.337 243.527 357.537C243.527 354.953 241.591 352.83 239.1 352.522V344C241.375 343.693 243.189 341.908 243.466 339.631H251.98C252.288 342.124 254.439 344.062 256.991 344.062C259.788 344.062 262.063 341.785 262.063 338.985C262.063 336.186 259.788 333.909 256.991 333.909ZM219.92 342.739C217.829 342.739 216.169 341.047 216.169 338.985C216.169 336.924 217.86 335.232 219.92 335.232C221.979 335.232 223.669 336.924 223.669 338.985C223.669 341.047 221.979 342.739 219.92 342.739ZM234.705 320.434C234.705 318.341 236.395 316.68 238.455 316.68C240.515 316.68 242.206 318.372 242.206 320.434C242.206 322.494 240.515 324.187 238.455 324.187C236.395 324.187 234.705 322.494 234.705 320.434ZM242.236 357.537C242.236 359.63 240.545 361.291 238.486 361.291C236.427 361.291 234.736 359.599 234.736 357.537C234.736 355.476 236.427 353.784 238.486 353.784C240.545 353.784 242.236 355.476 242.236 357.537ZM238.455 342.739C236.365 342.739 234.705 341.047 234.705 338.985C234.705 336.924 236.395 335.232 238.455 335.232C240.515 335.232 242.206 336.924 242.206 338.985C242.206 341.047 240.515 342.739 238.455 342.739ZM256.991 342.739C254.9 342.739 253.241 341.047 253.241 338.985C253.241 336.924 254.932 335.232 256.991 335.232C259.05 335.232 260.741 336.924 260.741 338.985C260.741 341.047 259.05 342.739 256.991 342.739Z" fill="black"/>
<path d="M137.95 244.409L144.005 238.348C146.003 239.886 148.832 239.764 150.646 237.948C152.612 235.98 152.612 232.749 150.646 230.78C148.832 228.965 145.973 228.811 143.975 230.349L137.95 224.319C139.487 222.319 139.333 219.458 137.519 217.643C135.552 215.674 132.325 215.674 130.357 217.643C128.544 219.458 128.421 222.319 129.958 224.288L123.902 230.349C121.904 228.811 119.076 228.934 117.263 230.749C115.295 232.718 115.295 235.948 117.263 237.918C119.076 239.733 121.935 239.886 123.933 238.348L129.958 244.379C128.421 246.378 128.574 249.24 130.388 251.055C132.355 253.024 135.583 253.024 137.551 251.055C139.364 249.24 139.487 246.378 137.95 244.409ZM130.88 243.486L124.855 237.456C126.269 235.641 126.238 233.087 124.855 231.272L130.88 225.242C132.694 226.627 135.245 226.657 137.058 225.242L143.083 231.272C141.669 233.087 141.7 235.641 143.083 237.456L137.058 243.486C135.245 242.102 132.694 242.071 130.88 243.486Z" fill="black"/>
<path d="M353.116 432.977C351.302 431.163 348.444 431.039 346.477 432.578L340.421 426.517C341.958 424.517 341.835 421.686 340.021 419.872C338.054 417.902 334.827 417.902 332.859 419.872C331.045 421.686 330.892 424.548 332.428 426.547L326.404 432.578C324.405 431.039 321.547 431.193 319.734 433.009C317.766 434.977 317.766 438.208 319.734 440.177C321.547 441.992 324.405 442.115 326.373 440.577L332.428 446.638C330.892 448.638 331.015 451.468 332.828 453.284C334.642 455.099 337.5 455.222 339.468 453.684L345.523 459.744C343.986 461.744 344.11 464.575 345.923 466.39C347.89 468.359 351.118 468.359 353.085 466.39C354.899 464.575 355.053 461.714 353.516 459.714L359.541 453.684C361.539 455.222 364.397 455.068 366.211 453.253C368.178 451.284 368.178 448.053 366.211 446.084C364.397 444.269 361.539 444.146 359.571 445.684L353.516 439.624C355.053 437.624 354.93 434.793 353.116 432.977ZM327.326 433.47L333.351 427.44C335.164 428.855 337.716 428.825 339.53 427.44L345.554 433.47C344.171 435.285 344.14 437.839 345.554 439.654L339.53 445.684C337.716 444.269 335.164 444.3 333.351 445.684L327.326 439.654C328.709 437.839 328.74 435.285 327.326 433.47ZM358.649 452.761L352.624 458.791C350.811 457.376 348.259 457.406 346.446 458.791L340.421 452.761C341.804 450.945 341.835 448.392 340.421 446.577L346.446 440.547C348.259 441.962 350.811 441.93 352.624 440.547L358.649 446.577C357.266 448.392 357.235 450.945 358.649 452.761Z" fill="black"/>
<path d="M150.64 446.698C152.454 444.882 152.577 442.021 151.04 440.052L157.096 433.991C159.094 435.53 161.921 435.407 163.735 433.591C165.702 431.623 165.702 428.392 163.735 426.423C161.921 424.608 159.063 424.454 157.065 425.992L151.04 419.962C152.577 417.962 152.423 415.1 150.61 413.286C148.642 411.316 145.415 411.316 143.448 413.286C141.634 415.1 141.511 417.962 143.047 419.931L136.992 425.992C134.994 424.454 132.166 424.577 130.353 426.392C128.539 428.207 128.416 431.068 129.953 433.038L123.897 439.098C121.899 437.561 119.071 437.683 117.258 439.499C115.444 441.314 115.321 444.175 116.858 446.144L110.802 452.205C108.804 450.666 105.977 450.79 104.163 452.605C102.196 454.574 102.196 457.805 104.163 459.773C105.977 461.589 108.835 461.743 110.833 460.204L116.858 466.234C115.321 468.234 115.475 471.095 117.288 472.911C119.256 474.88 122.483 474.88 124.45 472.911C126.264 471.095 126.387 468.234 124.85 466.265L130.906 460.204C132.904 461.743 135.732 461.619 137.545 459.804C139.359 457.989 139.482 455.128 137.945 453.159L144.001 447.098C145.999 448.636 148.826 448.513 150.64 446.698ZM130.875 452.236L124.85 446.206C126.264 444.39 126.233 441.837 124.85 440.021L130.875 433.991C132.689 435.376 135.24 435.407 137.054 433.991L143.079 440.021C141.665 441.837 141.695 444.39 143.079 446.206L137.054 452.236C135.24 450.851 132.689 450.82 130.875 452.236ZM150.149 420.885L156.174 426.915C154.759 428.73 154.79 431.284 156.174 433.099L150.149 439.129C148.335 437.745 145.784 437.714 143.97 439.129L137.945 433.099C139.359 431.284 139.328 428.73 137.945 426.915L143.97 420.885C145.784 422.269 148.335 422.3 150.149 420.885ZM117.749 465.343L111.724 459.312C113.139 457.497 113.108 454.943 111.724 453.128L117.749 447.098C119.563 448.482 122.114 448.513 123.928 447.098L129.953 453.128C128.539 454.943 128.57 457.497 129.953 459.312L123.928 465.343C122.114 463.958 119.563 463.927 117.749 465.343Z" fill="black"/>
<path d="M238.46 448.665C235.663 448.665 233.388 446.389 233.388 443.589C233.388 440.789 235.663 438.513 238.46 438.513C241.257 438.513 243.532 440.789 243.532 443.589C243.532 446.389 241.257 448.665 238.46 448.665ZM238.46 439.774C236.37 439.774 234.648 441.497 234.648 443.589C234.648 445.681 236.37 447.404 238.46 447.404C240.55 447.404 242.271 445.681 242.271 443.589C242.271 441.497 240.55 439.774 238.46 439.774Z" fill="black"/>
<path d="M150.133 249.636H148.967V251.482H148.003V249.636H144.632V248.755L147.663 244.331H148.967V248.829H150.133V249.636ZM145.565 248.829H148.013V247.853C148.013 246.973 148.024 246.082 148.045 245.19H148.024C147.483 246.029 146.943 246.835 146.381 247.652L145.565 248.829Z" fill="#888888"/>
<path d="M146.373 335.467C147.815 335.467 148.716 336.242 148.716 337.419C148.716 338.268 148.313 338.777 147.476 339.085V339.106C148.398 339.414 148.832 339.966 148.832 340.889C148.832 342.098 147.836 342.915 146.384 342.915C144.804 342.915 143.914 342.056 143.914 340.613H144.9C144.9 341.568 145.419 342.077 146.384 342.077C147.253 342.077 147.836 341.578 147.836 340.857C147.836 340.019 147.242 339.563 146.14 339.563H145.854V338.746H146.14C147.126 338.746 147.73 338.258 147.73 337.504C147.73 336.783 147.179 336.305 146.331 336.305C145.462 336.305 144.963 336.772 144.963 337.727H143.978C143.978 336.305 144.9 335.467 146.373 335.467Z" fill="#888888"/>
<path d="M271.617 336.443H268.384L268.172 338.661H268.194C268.522 338.279 269.063 338.066 269.635 338.066C271.034 338.066 271.946 338.99 271.946 340.422C271.946 341.939 270.96 342.915 269.444 342.915C268.045 342.915 267.123 342.14 267.123 340.867H268.119C268.13 341.631 268.692 342.066 269.444 342.066C270.367 342.066 270.939 341.461 270.939 340.454C270.939 339.467 270.377 338.894 269.497 338.894C268.798 338.894 268.31 339.255 268.141 339.902L267.176 339.838L267.568 335.616H271.617V336.443Z" fill="#888888"/>
<path d="M239.203 460.464H238.238V455.255H236.638V454.512C237.751 454.512 238.238 454.183 238.376 453.313H239.203V460.464Z" fill="#888888"/>
<path d="M156.795 453.165C158.173 453.165 159.159 453.961 159.159 455.128C159.159 455.902 158.671 456.465 157.908 456.751V456.772C158.788 457.037 159.296 457.653 159.296 458.533C159.296 459.785 158.279 460.613 156.795 460.613C155.311 460.613 154.304 459.785 154.304 458.533C154.304 457.653 154.813 457.037 155.682 456.772V456.751C154.929 456.465 154.442 455.902 154.442 455.128C154.442 453.961 155.427 453.165 156.795 453.165ZM156.795 454.003C155.968 454.003 155.406 454.459 155.406 455.16C155.406 455.902 155.947 456.369 156.795 456.369C157.643 456.369 158.183 455.902 158.183 455.16C158.183 454.459 157.622 454.003 156.795 454.003ZM156.795 457.197C155.904 457.197 155.29 457.716 155.29 458.47C155.29 459.255 155.894 459.764 156.795 459.764C157.696 459.764 158.3 459.255 158.3 458.47C158.3 457.716 157.685 457.197 156.795 457.197Z" fill="#888888"/>
<path d="M323.725 453.165C325.008 453.165 325.813 453.918 325.93 455.149H324.933C324.806 454.406 324.393 454.014 323.693 454.014C322.697 454.014 322.029 454.841 321.987 456.719H322.008C322.411 456.136 323.004 455.807 323.767 455.807C325.114 455.807 326.025 456.751 326.025 458.151C326.025 459.616 325.039 460.613 323.587 460.613C321.965 460.613 321.064 459.467 321.064 457.165C321.064 454.555 322.04 453.165 323.725 453.165ZM323.598 456.602C322.739 456.602 322.156 457.25 322.156 458.173C322.156 459.149 322.707 459.764 323.587 459.764C324.446 459.764 325.018 459.138 325.018 458.173C325.018 457.239 324.456 456.602 323.598 456.602Z" fill="#888888"/>
<path d="M358.071 335.616V336.475C356.99 338.045 356.036 340.199 355.527 342.766H354.457C355.103 339.891 356.142 337.801 357.086 336.464H353.132V335.616H358.071Z" fill="#888888"/>
<path d="M238.227 251.63C236.944 251.63 236.139 250.877 236.022 249.646H237.019C237.146 250.389 237.559 250.782 238.259 250.782C239.255 250.782 239.923 249.954 239.965 248.076H239.944C239.541 248.66 238.948 248.989 238.185 248.989C236.838 248.989 235.927 248.044 235.927 246.644C235.927 245.18 236.913 244.183 238.365 244.183C239.987 244.183 240.888 245.328 240.888 247.631C240.888 250.241 239.912 251.63 238.227 251.63ZM238.354 248.193C239.213 248.193 239.796 247.546 239.796 246.623C239.796 245.647 239.245 245.031 238.365 245.031C237.506 245.031 236.934 245.657 236.934 246.623C236.934 247.556 237.496 248.193 238.354 248.193Z" fill="#888888"/>
<path d="M350.024 244.183C351.392 244.183 352.303 244.978 352.303 246.177C352.303 247.429 351.487 248.013 350.342 248.681C348.911 249.509 348.625 249.975 348.614 250.644H352.473V251.482H347.544C347.533 251.408 347.533 251.323 347.533 251.27C347.533 249.912 347.872 249.137 349.643 248.108C350.724 247.472 351.286 247.079 351.286 246.198C351.286 245.509 350.798 245.031 350.014 245.031C349.102 245.031 348.678 245.551 348.625 246.432H347.629C347.682 245.01 348.604 244.183 350.024 244.183Z" fill="#888888"/>
</g>
<defs>
<clipPath id="clip0_1356_6246">
<rect width="477" height="679" fill="white"/>
</clipPath>
</defs>
</svg>
